<?xml version="1.0" encoding="UTF-8"?>
<!DOCTYPE svg PUBLIC "-//W3C//DTD SVG 1.1//EN" "http://www.w3.org/Graphics/SVG/1.1/DTD/svg11.dtd">
<!-- Creator: CorelDRAW 2019 (64-Bit) -->
<svg xmlns="http://www.w3.org/2000/svg" xml:space="preserve" width="15.8326mm" height="3.659mm" version="1.1" style="shape-rendering:geometricPrecision; text-rendering:geometricPrecision; image-rendering:optimizeQuality; fill-rule:evenodd; clip-rule:evenodd"
viewBox="0 0 54.53 12.6"
 xmlns:xlink="http://www.w3.org/1999/xlink">
 <defs>
  <style type="text/css">
   <![CDATA[
    .fil2 {fill:#3C3C3E}
    .fil1 {fill:#3C3C3E}
    .fil3 {fill:#DC2B1B}
    .fil4 {fill:#373435;fill-rule:nonzero}
    .fil0 {fill:#3C3C3E;fill-rule:nonzero}
   ]]>
  </style>
 </defs>
 <g id="Слой_x0020_1">
  <metadata id="CorelCorpID_0Corel-Layer"/>
  <g id="_2427986432160">
   <path class="fil0" d="M20.85 4.19c-0.05,0.61 -0.27,1.1 -0.64,1.46 -0.37,0.36 -0.89,0.54 -1.54,0.54 -0.71,0 -1.27,-0.23 -1.7,-0.7 -0.43,-0.47 -0.65,-1.09 -0.65,-1.85 0,-0.73 0.22,-1.33 0.65,-1.82 0.43,-0.48 1.01,-0.72 1.74,-0.72 0.58,0 1.06,0.16 1.46,0.49 0.39,0.33 0.61,0.74 0.65,1.25l-1.05 0c-0.05,-0.27 -0.18,-0.48 -0.37,-0.63 -0.19,-0.15 -0.43,-0.22 -0.71,-0.22 -0.3,0 -0.55,0.08 -0.75,0.25 -0.2,0.17 -0.35,0.37 -0.43,0.61 -0.08,0.24 -0.12,0.51 -0.12,0.79 0,0.5 0.12,0.9 0.35,1.2 0.23,0.3 0.54,0.45 0.94,0.45 0.65,0 1.02,-0.36 1.11,-1.09l1.06 0z"/>
   <path id="1" class="fil0" d="M26.24 6.07l-0.98 0c-0.03,-0.09 -0.05,-0.2 -0.07,-0.34 -0.3,0.3 -0.68,0.44 -1.14,0.44 -0.39,0 -0.7,-0.09 -0.92,-0.28 -0.22,-0.19 -0.33,-0.45 -0.33,-0.78 0,-0.15 0.02,-0.28 0.06,-0.4 0.04,-0.11 0.1,-0.21 0.19,-0.29 0.09,-0.08 0.17,-0.14 0.25,-0.19 0.08,-0.05 0.19,-0.09 0.33,-0.12 0.14,-0.03 0.26,-0.06 0.34,-0.07 0.09,-0.02 0.21,-0.03 0.36,-0.05 0.34,-0.05 0.57,-0.09 0.69,-0.14 0.12,-0.05 0.17,-0.14 0.17,-0.28 0,-0.31 -0.21,-0.47 -0.64,-0.47 -0.22,0 -0.39,0.04 -0.49,0.12 -0.1,0.08 -0.17,0.22 -0.2,0.42l-0.91 0c0.05,-0.79 0.6,-1.19 1.63,-1.19 1.02,0 1.54,0.38 1.54,1.15l0 1.52c0,0.45 0.04,0.77 0.12,0.96zm-1.06 -1.71c-0.11,0.07 -0.34,0.13 -0.68,0.18 -0.29,0.05 -0.47,0.1 -0.56,0.17 -0.1,0.09 -0.15,0.2 -0.15,0.36 0,0.15 0.05,0.26 0.14,0.35 0.09,0.08 0.22,0.13 0.39,0.13 0.26,0 0.47,-0.07 0.63,-0.21 0.16,-0.14 0.24,-0.33 0.24,-0.58l0 -0.4z"/>
   <path id="2" class="fil0" d="M30.67 2.48l0 0.9c-0.14,-0.03 -0.26,-0.04 -0.38,-0.04 -0.32,0 -0.55,0.1 -0.7,0.3 -0.15,0.2 -0.23,0.47 -0.23,0.82l0 1.61 -0.97 0 0 -3.53 0.92 0 0 0.65c0.23,-0.49 0.61,-0.73 1.14,-0.73 0.05,0 0.12,0.01 0.21,0.02z"/>
   <path class="fil1" d="M32.43 1.2l2.1 0c0.55,0 0.98,0.13 1.3,0.39 0.32,0.26 0.48,0.65 0.48,1.17 0,0.51 -0.16,0.9 -0.48,1.16 -0.32,0.26 -0.74,0.39 -1.25,0.39l-1.09 0 0 1.75 -1.06 0 0 -4.87zm1.06 0.87l0 1.4 0.95 0c0.56,0 0.83,-0.23 0.83,-0.7 0,-0.47 -0.28,-0.7 -0.83,-0.7l-0.96 0zm8.06 3.99l-0.98 0c-0.03,-0.09 -0.05,-0.2 -0.07,-0.34 -0.3,0.3 -0.68,0.44 -1.14,0.44 -0.39,0 -0.7,-0.09 -0.92,-0.28 -0.22,-0.19 -0.33,-0.45 -0.33,-0.78 0,-0.15 0.02,-0.28 0.06,-0.4 0.04,-0.11 0.1,-0.21 0.19,-0.29 0.09,-0.08 0.17,-0.14 0.25,-0.19 0.08,-0.05 0.19,-0.09 0.33,-0.12 0.14,-0.03 0.26,-0.06 0.34,-0.07 0.09,-0.02 0.21,-0.03 0.36,-0.05 0.34,-0.05 0.57,-0.09 0.69,-0.14 0.12,-0.05 0.17,-0.14 0.17,-0.28 0,-0.31 -0.21,-0.47 -0.64,-0.47 -0.22,0 -0.39,0.04 -0.49,0.12 -0.11,0.08 -0.17,0.22 -0.21,0.42l-0.91 0c0.05,-0.79 0.6,-1.19 1.63,-1.19 1.02,0 1.54,0.38 1.54,1.15l0 1.52c0,0.45 0.04,0.77 0.12,0.96zm-1.06 -1.72c-0.11,0.07 -0.34,0.13 -0.68,0.18 -0.29,0.05 -0.47,0.1 -0.56,0.17 -0.1,0.09 -0.15,0.2 -0.15,0.36 0,0.15 0.05,0.26 0.14,0.35 0.09,0.08 0.22,0.13 0.39,0.13 0.26,0 0.47,-0.07 0.63,-0.21 0.16,-0.14 0.24,-0.33 0.24,-0.58l0 -0.4zm5.38 -1.87l0 0.9c-0.14,-0.03 -0.26,-0.04 -0.38,-0.04 -0.32,0 -0.55,0.1 -0.7,0.3 -0.15,0.2 -0.23,0.47 -0.23,0.82l0 1.61 -0.97 0 0 -3.53 0.92 0 0 0.65c0.23,-0.49 0.61,-0.73 1.14,-0.73 0.05,0 0.12,0.01 0.21,0.02zm3.7 0.06l0 0.66 -0.72 0 0 1.66c0,0.11 0,0.18 0.01,0.23 0,0.05 0.02,0.1 0.05,0.15 0.03,0.05 0.07,0.08 0.13,0.1 0.06,0.02 0.14,0.02 0.24,0.02 0.12,0 0.22,-0 0.29,-0.01l0 0.74c-0.24,0.02 -0.43,0.03 -0.59,0.03 -0.42,0 -0.71,-0.07 -0.86,-0.22 -0.15,-0.15 -0.23,-0.43 -0.23,-0.86l0 -1.83 -0.59 0 0 -0.66 0.59 0 0 -0.77 0.96 0 0 0.77 0.72 0zm4.84 1.02l-0.9 0c-0.03,-0.18 -0.09,-0.3 -0.2,-0.38 -0.11,-0.07 -0.26,-0.11 -0.47,-0.11 -0.17,0 -0.31,0.03 -0.4,0.09 -0.1,0.06 -0.14,0.15 -0.14,0.26 0,0.13 0.05,0.22 0.16,0.27 0.11,0.05 0.31,0.1 0.59,0.16 0.05,0.01 0.09,0.02 0.11,0.02 0.16,0.03 0.29,0.06 0.39,0.09 0.1,0.03 0.22,0.07 0.36,0.12 0.14,0.06 0.25,0.12 0.33,0.19 0.08,0.07 0.15,0.17 0.21,0.28 0.06,0.12 0.09,0.26 0.09,0.41 0,0.37 -0.14,0.66 -0.43,0.87 -0.29,0.21 -0.68,0.32 -1.18,0.32 -0.48,0 -0.87,-0.1 -1.18,-0.31 -0.31,-0.2 -0.47,-0.52 -0.47,-0.94l0.92 0c0.03,0.39 0.28,0.59 0.75,0.59 0.2,0 0.35,-0.04 0.47,-0.12 0.12,-0.08 0.17,-0.19 0.17,-0.32 0,-0.13 -0.05,-0.23 -0.16,-0.28 -0.1,-0.05 -0.3,-0.11 -0.58,-0.18 -0.02,-0 -0.04,-0.01 -0.05,-0.01 -0.03,-0.01 -0.1,-0.03 -0.21,-0.05 -0.11,-0.02 -0.19,-0.04 -0.23,-0.05 -0.04,-0.01 -0.11,-0.03 -0.21,-0.06 -0.1,-0.03 -0.17,-0.05 -0.22,-0.08 -0.05,-0.03 -0.11,-0.06 -0.18,-0.1 -0.08,-0.04 -0.13,-0.08 -0.17,-0.13 -0.04,-0.05 -0.08,-0.1 -0.12,-0.16 -0.04,-0.06 -0.07,-0.13 -0.09,-0.21 -0.02,-0.08 -0.02,-0.16 -0.02,-0.25 0,-0.35 0.13,-0.61 0.4,-0.8 0.27,-0.19 0.65,-0.28 1.14,-0.28 0.44,0 0.8,0.09 1.09,0.27 0.28,0.18 0.43,0.47 0.44,0.85z"/>
   <path class="fil2" d="M0.95 0l4.02 0c0.52,0 0.95,0.43 0.95,0.95l0 4.02c0,0.52 -0.43,0.95 -0.95,0.95l-4.02 0c-0.06,0 -0.11,-0 -0.16,-0.01l0.82 -0.82 -0.72 -0.72 -0.85 0.85c-0.02,-0.08 -0.03,-0.16 -0.03,-0.24l0 -4.02c0,-0.52 0.43,-0.95 0.95,-0.95zm0.92 1.96l0.24 -0.24c0.5,0.21 0.92,0.5 1.28,0.85 0.35,0.36 0.63,0.79 0.85,1.28l-0.24 0.24c-0.22,-0.49 -0.51,-0.91 -0.86,-1.27 -0.35,-0.36 -0.77,-0.65 -1.27,-0.86zm-0.35 0.35l0.24 -0.24c0.5,0.21 0.92,0.5 1.28,0.85 0.35,0.36 0.63,0.79 0.85,1.28l-0.24 0.24c-0.22,-0.49 -0.51,-0.91 -0.86,-1.27 -0.35,-0.36 -0.77,-0.65 -1.27,-0.86zm0.79 3.47l-0.44 -0.44 0.27 -0.27 -1.25 -1.25 -0.27 0.27 -0.44 -0.44 1.22 -1.23c0.5,0.21 0.92,0.5 1.28,0.85 0.35,0.36 0.63,0.79 0.85,1.28l-1.22 1.22zm-0.22 -1.86c-0.09,-0.1 -0.25,-0.1 -0.34,0 -0.09,0.09 -0.09,0.25 0,0.34 0.09,0.1 0.25,0.1 0.34,0 0.1,-0.1 0.1,-0.25 0,-0.34zm0.14 -2.32l0.32 -0.32c1.04,0.38 1.74,1.1 2.13,2.13l-0.32 0.32c-0.22,-0.49 -0.51,-0.91 -0.86,-1.27 -0.35,-0.36 -0.77,-0.65 -1.27,-0.86z"/>
   <path class="fil3" d="M7.67 0l4.02 0c0.52,0 0.95,0.43 0.95,0.95l0 3.92 -0.57 -0.57 -0.43 -0.43c-0.16,-0.16 -0.23,-0.39 -0.2,-0.61 0.02,-0.25 0.01,-0.52 -0.09,-0.76 -0.12,-0.31 -0.35,-0.59 -0.75,-0.75 -0.1,-0.04 -0.21,-0.08 -0.32,-0.1 -0.06,-0.01 -0.19,-0.05 -0.24,-0.03l-0.01 0.01 -0.01 0.01 0 0.03c0.19,0.34 0.35,0.63 0.55,0.97 0.03,0.06 0.03,0.15 -0.02,0.2 -0.1,0.12 -0.23,0.23 -0.36,0.31 -0.02,0.02 -0.05,0.03 -0.07,0.05 -0.02,0.01 -0.04,0.02 -0.06,0.03l-0.02 0.01c-0.04,0.02 -0.08,0.04 -0.12,0.06 -0.03,0.01 -0.06,0.02 -0.09,0.03 -0.03,0.01 -0.07,0.02 -0.1,0.03l-0.04 0.01c-0.04,0.01 -0.09,0.02 -0.13,0.03 -0.07,0.01 -0.15,-0.03 -0.19,-0.09 -0.12,-0.22 -0.24,-0.44 -0.37,-0.66 -0.05,-0.09 -0.1,-0.18 -0.15,-0.27 -0.01,-0.02 -0.04,-0.03 -0.06,-0.02l-0.02 0.02c-0.01,0.03 -0.03,0.05 -0.04,0.08 -0.01,0.02 -0.02,0.04 -0.03,0.06 -0.03,0.06 -0.05,0.13 -0.06,0.2 -0.01,0.02 -0.01,0.04 -0.02,0.06 -0,0.02 -0.01,0.04 -0.01,0.06 -0.01,0.03 -0.01,0.06 -0.01,0.1 -0,0.02 -0.01,0.05 -0.01,0.07l-0 0.04c-0.02,0.38 0.09,0.75 0.25,0.94 0.27,0.31 0.81,0.53 1.21,0.49 0.22,-0.02 0.44,0.05 0.59,0.2l1.21 1.21c-0.06,0.01 -0.11,0.02 -0.17,0.02l-4.02 0c-0.52,0 -0.95,-0.43 -0.95,-0.95l0 -4.02c0,-0.52 0.43,-0.95 0.95,-0.95z"/>
   <path class="fil3" d="M0.95 6.69l4.02 0c0.52,0 0.95,0.43 0.95,0.95l0 4.02c0,0.52 -0.43,0.95 -0.95,0.95l-1.44 0 0.09 -0.06 -0.2 -0.4c0.1,-0.09 0.18,-0.18 0.26,-0.29l0.46 0.11 0.24 -0.5 -0.39 -0.24c0.02,-0.09 0.04,-0.17 0.05,-0.26l0.46 -0.1 -0.05 -0.55 -0.47 -0.04c-0.04,-0.15 -0.1,-0.29 -0.18,-0.43l0.32 -0.32 -0.37 -0.43 -0.42 0.2c-0.22,-0.18 -0.48,-0.32 -0.77,-0.4l-0.02 -0.43 -0.59 -0.07 -0.13 0.42c-0.28,0.01 -0.54,0.07 -0.78,0.18l-0.33 -0.31 -0.49 0.31 0.2 0.39c-0.1,0.09 -0.18,0.19 -0.26,0.29l-0.13 -0.03 0 -2c0,-0.52 0.43,-0.95 0.95,-0.95zm0.21 5.91l-0.21 0c-0.25,0 -0.49,-0.1 -0.66,-0.27l0.2 -0.1c0.19,0.16 0.42,0.28 0.67,0.37zm0.75 -3.28c0.87,0 1.57,0.65 1.57,1.44 0,0.27 -0.08,0.51 -0.21,0.73 0,-0.03 0,-0.06 0,-0.09 0,-1.04 -0.87,-1.89 -1.98,-1.96 0.19,-0.08 0.4,-0.12 0.62,-0.12zm0 -0.15c0.96,0 1.73,0.71 1.73,1.59 0,0.88 -0.78,1.59 -1.73,1.59 -0.96,0 -1.73,-0.71 -1.73,-1.59 0,-0.88 0.78,-1.59 1.73,-1.59z"/>
   <path class="fil2" d="M7.67 6.69l4.02 0c0.52,0 0.95,0.43 0.95,0.95l0 4.02c0,0.52 -0.43,0.95 -0.95,0.95l-4.02 0c-0.52,0 -0.95,-0.43 -0.95,-0.95l0 -4.02c0,-0.52 0.43,-0.95 0.95,-0.95zm3.89 1.25l0.05 0.05c0.06,0.06 0.07,0.16 0.01,0.22l-0.03 0.03 -0.06 0.07 -0.04 0.05 -0.01 0.01 -0.05 0.05 -0.01 0.01 -0.04 0.05 -0.04 0.04 -0.03 0.03 -0.04 0.05 -0.03 0.03 -0.03 0.03 -0.04 0.05 -0.06 0.07 -0.15 0.16 -0.58 0.63 -0.04 0.05 -0.26 0.28 -0.06 0.07 0.07 0.07 0 0 0.02 0.02c0.04,0.04 0.03,0.1 -0.01,0.15l-0.38 0.38c-0.05,0.05 -0.11,0.05 -0.15,0.01l-0.02 -0.02 -0.1 0.1 0.06 0.05 -0.08 0.08 -0.06 -0.05 -0.04 0.04 0.06 0.05 -0.08 0.08 -0.06 -0.05 -0.04 0.04 0.06 0.05 -0.08 0.08 -0.06 -0.05 -0.04 0.04 0.06 0.05 -0.08 0.08 -0.06 -0.05 -0.04 0.04 0.06 0.05 -0.08 0.08 -0.06 -0.05 -0.04 0.04 0.06 0.05 -0.08 0.08 -0.06 -0.05 -0.04 0.04 0.06 0.05 -0.08 0.08 -0.06 -0.05 -0.04 0.04 0.06 0.05 -0.08 0.08 -0.06 -0.05 -0.04 0.04 0.06 0.05 -0.08 0.08 -0.06 -0.05 -0.13 0.13 -0.06 -0.06 -0.11 0.11c-0.06,0.06 -0.13,0.08 -0.2,0.09l-0.02 0c-0.08,-0 -0.15,-0.03 -0.21,-0.09l-0.27 -0.27 0.07 -0.07 0.27 0.27c0.08,0.08 0.21,0.08 0.29,0l0.11 -0.11 -0.1 -0.1 -0.16 0.16 -0.35 -0.35 0.16 -0.16 -0.24 -0.24 0.06 -0.06 0 0 -0 0 -0.06 -0.05 0.08 -0.08 0.06 0.05 0.04 -0.04 -0.06 -0.05 0.08 -0.08 0.06 0.05 0.04 -0.04 -0.06 -0.05 0.08 -0.08 0.06 0.05 0.04 -0.04 -0.06 -0.05 0.08 -0.08 0.06 0.05 0.04 -0.04 -0.06 -0.05 0.08 -0.08 0.06 0.05 0.04 -0.04 -0.06 -0.05 0.08 -0.08 0.06 0.05 0.04 -0.04 -0.06 -0.05 0.08 -0.08 0.06 0.05 0.04 -0.04 -0.06 -0.05 0.08 -0.08 0.06 0.05 0.04 -0.04 0 0 -0.06 -0.05 0.08 -0.08 0.06 0.05 0 0 0.17 -0.17 -0.02 -0.02c-0.04,-0.04 -0.03,-0.1 0.01,-0.15l0.38 -0.38c0.04,-0.04 0.11,-0.05 0.15,-0.01l0.02 0.02 0 0 0.07 0.07 0.07 -0.06 0.28 -0.26 0.05 -0.04 0.79 -0.73 0.02 -0.02 0.05 -0.05 0.05 -0.04 0.04 -0.03 0.02 -0.01 0.02 -0.02 0.05 -0.04 0.07 -0.06 0.05 -0.04 0.04 -0.04 0.03 -0.03 0.05 -0.04 0.07 -0.06 0.03 -0.03c0.06,-0.06 0.16,-0.05 0.22,0.01l0.05 0.05 0.12 -0.12c-0,-0.01 -0,-0.03 0,-0.05 0,-0.01 0.01,-0.02 0.01,-0.03 0,-0.01 0.01,-0.02 0.02,-0.03l0 -0 0 -0 0 -0 0 -0 0 -0 0.01 -0.01 0 -0c0.01,-0.02 0.03,-0.03 0.04,-0.05l0 -0 0 0 0 -0 0 0c0.01,-0.01 0.03,-0.03 0.05,-0.04l0 -0 0 -0 0.01 -0.01 0 -0 0 -0 0 -0 0 -0 0 -0c0.03,-0.02 0.05,-0.03 0.08,-0.03l0.02 0c0.02,0 0.03,0.01 0.04,0.02l0.17 0.17c0.02,0.02 0.02,0.09 -0.02,0.14l-0 0 -0 0 -0 0 -0 0 -0 0 -0 0 -0.01 0.01 -0 0 -0 0 -0.01 0.01 -0 0 -0.01 0.01 0 0 -0.01 0.01 -0.01 0.01c-0.01,0.01 -0.01,0.01 -0.02,0.02l-0.01 0.01 0 0 -0 0 0 0 -0 0 -0 0c-0,0 -0.01,0.01 -0.01,0.01l-0 0 -0.01 0.01 -0 0 -0 0 -0.01 0.01 -0.01 0.01 -0 0 -0.01 0 -0 0 -0 0 -0 0 -0 0c-0.01,0.01 -0.02,0.01 -0.03,0.02 -0.01,0 -0.02,0.01 -0.03,0.01 -0.02,0 -0.04,0.01 -0.05,0l-0.12 0.12zm-0.29 0.65l0.04 -0.05 -0 -0 -0.04 0.05 0 0z"/>
   <path class="fil4" d="M27.45 8.14c-0.39,0.12 -0.73,0.35 -1.03,0.68 -0.32,0.36 -0.48,0.73 -0.48,1.11 0,0.31 0.16,0.46 0.48,0.46 0.3,0 0.56,-0.12 0.8,-0.36 0.34,-0.35 0.51,-0.74 0.51,-1.19 0,-0.26 -0.09,-0.5 -0.28,-0.7zm-0.77 3.44c0.16,0.01 0.31,0.02 0.45,0.02 0.58,0 1.07,-0.15 1.47,-0.45 0.26,-0.19 0.46,-0.43 0.62,-0.71 0.16,-0.3 0.24,-0.6 0.24,-0.91 0,-0.38 -0.11,-0.7 -0.34,-0.98 -0.18,0.19 -0.37,0.47 -0.56,0.84 -0.26,0.5 -0.43,0.79 -0.49,0.89 -0.45,0.69 -0.91,1.12 -1.38,1.29zm2.49 -3.09c0.24,0.3 0.36,0.64 0.36,1.02 0,0.33 -0.08,0.65 -0.25,0.96 -0.16,0.29 -0.38,0.55 -0.65,0.75 -0.41,0.31 -0.94,0.46 -1.57,0.46 -0.07,0 -0.18,-0 -0.32,-0.01 -0.14,-0 -0.25,-0.01 -0.32,-0.01 -0.06,0 -0.15,0.01 -0.27,0.02 -0.12,0.01 -0.21,0.02 -0.27,0.02 -0.34,0 -0.51,-0.06 -0.51,-0.18 0,-0.08 0.08,-0.12 0.25,-0.12 0.1,0 0.24,0.02 0.43,0.06 0.19,0.04 0.33,0.06 0.43,0.06 0.34,0 0.69,-0.31 1.04,-0.95 0.01,-0.02 0.06,-0.12 0.16,-0.3 0.42,-0.79 0.86,-1.4 1.32,-1.84 -0.27,-0.24 -0.62,-0.36 -1.06,-0.36 -0.12,0 -0.25,0.01 -0.4,0.04 0.17,0.22 0.25,0.47 0.25,0.74 0,0.45 -0.16,0.84 -0.5,1.18 -0.27,0.28 -0.57,0.43 -0.9,0.43 -0.23,0 -0.41,-0.07 -0.54,-0.2 -0.13,-0.13 -0.2,-0.31 -0.2,-0.54 0,-0.41 0.18,-0.78 0.54,-1.1 0.31,-0.28 0.68,-0.47 1.12,-0.58 -0.17,-0.09 -0.36,-0.14 -0.57,-0.14 -0.34,0 -0.64,0.11 -0.91,0.32 -0.24,0.19 -0.43,0.46 -0.58,0.79 -0.01,0.02 -0.04,0.14 -0.1,0.37 -0.05,0.2 -0.08,0.3 -0.09,0.32 -0.02,0 -0.04,-0.03 -0.04,-0.07 0,-0.27 0.09,-0.57 0.28,-0.9 0.15,-0.27 0.35,-0.49 0.59,-0.65 0.26,-0.17 0.53,-0.25 0.83,-0.25 0.25,0 0.48,0.06 0.68,0.19 0.18,-0.02 0.31,-0.04 0.41,-0.04 0.51,0 0.92,0.13 1.23,0.4 0.3,-0.23 0.5,-0.34 0.62,-0.34 0.02,0 0.03,0.01 0.03,0.02 -0.02,0.02 -0.1,0.08 -0.23,0.18 -0.17,0.12 -0.27,0.21 -0.31,0.25z"/>
   <path id="1" class="fil4" d="M29.84 10.54c-0.04,0.05 -0.12,0.14 -0.25,0.27 -0.14,0.15 -0.22,0.22 -0.23,0.22 -0.01,0 -0.02,-0.01 -0.02,-0.02 0,-0.05 0.22,-0.3 0.66,-0.75l0.37 -0.03 -0.52 0.81c-0.17,0.26 -0.25,0.43 -0.25,0.49 0,0.07 0.03,0.1 0.09,0.1 0.13,0 0.33,-0.15 0.61,-0.45 0.01,-0.01 0.03,-0.03 0.05,-0.06l0.06 -0.07c0.07,-0.08 0.11,-0.11 0.13,-0.11 0.02,0 0.03,0.01 0.03,0.03 0,0.03 -0.08,0.12 -0.24,0.29 -0.29,0.3 -0.5,0.45 -0.63,0.45 -0.19,0 -0.28,-0.11 -0.28,-0.33 0,-0.13 0.12,-0.38 0.36,-0.74 0.02,-0.02 0.04,-0.06 0.06,-0.1zm0.64 -1.12c0,-0.06 0.02,-0.11 0.06,-0.16 0.04,-0.05 0.09,-0.07 0.15,-0.07 0.09,0 0.14,0.05 0.14,0.15 0,0.06 -0.02,0.11 -0.06,0.16 -0.04,0.05 -0.09,0.08 -0.14,0.08 -0.1,0 -0.15,-0.05 -0.15,-0.15z"/>
   <path id="2" class="fil4" d="M31.17 10.34c-0.07,0.07 -0.18,0.2 -0.35,0.38 -0.19,0.21 -0.29,0.31 -0.31,0.31 -0.02,0 -0.02,-0.01 -0.02,-0.02 0,-0.03 0.14,-0.19 0.41,-0.49l0.27 -0.29c0.06,-0.15 0.13,-0.22 0.21,-0.22 0.07,0 0.1,0.03 0.1,0.1 0,0.05 -0.04,0.1 -0.11,0.13 -0.09,0.03 -0.13,0.09 -0.13,0.19 0,0.07 0.02,0.17 0.05,0.31 0.03,0.14 0.05,0.24 0.05,0.31 0,0.11 -0.02,0.21 -0.07,0.31l0.21 -0.23c0.12,-0.13 0.19,-0.19 0.2,-0.19 0.02,0 0.03,0.01 0.03,0.03 0,0.03 -0.07,0.11 -0.2,0.25 -0.31,0.32 -0.57,0.49 -0.79,0.49 -0.23,0 -0.35,-0.09 -0.35,-0.27 0,-0.04 0.02,-0.08 0.05,-0.12 0.03,-0.03 0.07,-0.05 0.11,-0.05 0.07,0 0.11,0.03 0.11,0.1 0,0.02 -0.01,0.05 -0.03,0.1 -0.02,0.05 -0.03,0.08 -0.03,0.1 0,0.04 0.03,0.06 0.08,0.06 0.16,0 0.29,-0.15 0.4,-0.44 0.08,-0.23 0.12,-0.45 0.12,-0.64 0,-0.02 -0,-0.05 -0,-0.07l-0.01 -0.12z"/>
   <path id="3" class="fil4" d="M32.11 10.54c-0.04,0.05 -0.12,0.14 -0.25,0.27 -0.14,0.15 -0.22,0.22 -0.23,0.22 -0.01,0 -0.02,-0.01 -0.02,-0.02 0,-0.02 0.11,-0.16 0.33,-0.4 0.24,-0.27 0.38,-0.42 0.41,-0.47l0.22 -0.34 -0.25 0 0.04 -0.08 0.25 0 0.32 -0.5 0.33 -0.03 -0.33 0.53 0.6 0 -0.04 0.08 -0.6 0 -0.77 1.23c-0.16,0.26 -0.24,0.42 -0.24,0.49 0,0.07 0.03,0.1 0.09,0.1 0.11,0 0.32,-0.15 0.61,-0.45 0.14,-0.15 0.22,-0.23 0.24,-0.24 0.02,0 0.03,0.01 0.03,0.03 0,0.03 -0.08,0.12 -0.24,0.29 -0.29,0.3 -0.5,0.45 -0.63,0.45 -0.19,0 -0.28,-0.11 -0.28,-0.33 0,-0.13 0.12,-0.38 0.36,-0.74 0.02,-0.02 0.04,-0.06 0.06,-0.1z"/>
   <path id="4" class="fil4" d="M32.87 11.68l0.7 -1.04c0.1,-0.14 0.14,-0.24 0.14,-0.28 0,-0.05 -0.02,-0.07 -0.07,-0.07 -0.1,0 -0.3,0.16 -0.61,0.49 -0.04,0.05 -0.08,0.09 -0.13,0.14 -0.06,0.07 -0.1,0.11 -0.12,0.11 -0.02,0 -0.02,-0.01 -0.02,-0.02 0,-0.03 0.04,-0.09 0.12,-0.17l0.16 -0.18c0.28,-0.3 0.48,-0.45 0.61,-0.45 0.13,0 0.2,0.07 0.2,0.22 0,0.15 -0.08,0.36 -0.25,0.64l0.01 -0.01c0.14,-0.14 0.29,-0.28 0.44,-0.41 0.06,-0.15 0.1,-0.25 0.14,-0.3 0.07,-0.1 0.17,-0.15 0.28,-0.15 0.08,0 0.12,0.03 0.12,0.08 0,0.06 -0.1,0.16 -0.3,0.31l-0.08 0.06c-0.14,0.11 -0.21,0.23 -0.21,0.38 0,0.09 0.04,0.14 0.13,0.14 0.11,0 0.24,-0.08 0.39,-0.25 0.02,0 0.03,0.01 0.03,0.03 0,0.06 -0.05,0.13 -0.16,0.2 -0.1,0.06 -0.18,0.1 -0.25,0.1 -0.15,0 -0.22,-0.07 -0.22,-0.2 0,-0.05 0.02,-0.13 0.07,-0.25 -0.2,0.17 -0.46,0.45 -0.77,0.84l-0.36 0.04z"/>
   <path id="5" class="fil4" d="M34.97 10.54c-0.04,0.05 -0.12,0.14 -0.25,0.27 -0.14,0.15 -0.22,0.22 -0.23,0.22 -0.01,0 -0.02,-0.01 -0.02,-0.02 0,-0.05 0.22,-0.3 0.66,-0.75l0.37 -0.03 -0.52 0.81c-0.17,0.26 -0.25,0.43 -0.25,0.49 0,0.07 0.03,0.1 0.09,0.1 0.13,0 0.33,-0.15 0.61,-0.45 0.01,-0.01 0.03,-0.03 0.05,-0.06l0.06 -0.07c0.07,-0.08 0.11,-0.11 0.13,-0.11 0.02,0 0.03,0.01 0.03,0.03 0,0.03 -0.08,0.12 -0.24,0.29 -0.29,0.3 -0.5,0.45 -0.63,0.45 -0.19,0 -0.28,-0.11 -0.28,-0.33 0,-0.13 0.12,-0.38 0.36,-0.74 0.02,-0.02 0.04,-0.06 0.06,-0.1zm0.64 -1.12c0,-0.06 0.02,-0.11 0.06,-0.16 0.04,-0.05 0.09,-0.07 0.15,-0.07 0.09,0 0.14,0.05 0.14,0.15 0,0.06 -0.02,0.11 -0.06,0.16 -0.04,0.05 -0.09,0.08 -0.14,0.08 -0.1,0 -0.15,-0.05 -0.15,-0.15z"/>
   <path id="6" class="fil4" d="M37.58 8.5l-1.29 2.2c-0.28,0.47 -0.42,0.75 -0.42,0.82 0,0.07 0.05,0.1 0.15,0.1 0.21,0 0.39,-0.1 0.54,-0.29 0.13,-0.17 0.22,-0.36 0.26,-0.58 0.01,-0.05 0.02,-0.12 0.03,-0.22 0.02,-0.21 0.08,-0.32 0.18,-0.32 0.1,0 0.15,0.07 0.15,0.21 0,0.23 -0.11,0.49 -0.33,0.78 0.01,0 0.03,0 0.04,0.01 0.02,0.01 0.03,0.01 0.04,0.01 0.13,0 0.27,-0.08 0.42,-0.23l0.07 -0.08c0.01,-0.01 0.02,-0.02 0.04,-0.02 0.01,0 0.02,0.01 0.02,0.03 0,0.01 -0,0.02 -0.01,0.03l-0.06 0.07c-0.15,0.18 -0.33,0.27 -0.53,0.27 -0.03,0 -0.07,-0 -0.12,-0.01 -0.26,0.28 -0.53,0.42 -0.8,0.42 -0.2,0 -0.3,-0.11 -0.3,-0.33 0,-0.12 0.07,-0.31 0.2,-0.58l0.01 -0.01 -0.16 0.18c-0.04,0.04 -0.06,0.06 -0.07,0.06 -0.02,0 -0.02,-0.01 -0.02,-0.02 0,-0.01 0.03,-0.06 0.1,-0.14 0.3,-0.36 0.58,-0.75 0.83,-1.18l0.66 -1.14 0.36 -0.05z"/>
   <path id="7" class="fil4" d="M38.69 11.24c-0.09,0.14 -0.14,0.24 -0.14,0.29 0,0.06 0.03,0.09 0.08,0.09 0.09,0 0.28,-0.15 0.56,-0.44 0.01,-0.01 0.05,-0.05 0.12,-0.13 0.07,-0.07 0.1,-0.11 0.12,-0.11 0.02,0 0.03,0.01 0.03,0.02 0,0.03 -0.07,0.11 -0.2,0.26 -0.31,0.32 -0.52,0.49 -0.64,0.49 -0.16,0 -0.24,-0.12 -0.24,-0.35 0,-0.03 0.01,-0.08 0.02,-0.15 -0.29,0.33 -0.51,0.5 -0.68,0.5 -0.19,0 -0.29,-0.11 -0.29,-0.33 0,-0.15 0.13,-0.4 0.38,-0.78l0.04 -0.06c-0.3,0.32 -0.46,0.49 -0.47,0.49 -0.02,0 -0.03,-0.01 -0.03,-0.02 0,-0.04 0.22,-0.29 0.66,-0.75l0.37 -0.02 -0.55 0.86c-0.14,0.23 -0.22,0.37 -0.22,0.44 0,0.06 0.03,0.09 0.08,0.09 0.3,0 0.72,-0.45 1.26,-1.37l0.35 -0.02 -0.63 1z"/>
   <path id="8" class="fil4" d="M39.88 10.54c-0.04,0.05 -0.12,0.14 -0.25,0.27 -0.14,0.15 -0.22,0.22 -0.23,0.22 -0.01,0 -0.02,-0.01 -0.02,-0.02 0,-0.02 0.11,-0.16 0.33,-0.4 0.24,-0.27 0.38,-0.42 0.41,-0.47l0.22 -0.34 -0.25 0 0.04 -0.08 0.25 0 0.32 -0.5 0.33 -0.03 -0.33 0.53 0.6 0 -0.04 0.08 -0.6 0 -0.77 1.23c-0.16,0.26 -0.24,0.42 -0.24,0.49 0,0.07 0.03,0.1 0.09,0.1 0.11,0 0.32,-0.15 0.61,-0.45 0.14,-0.15 0.22,-0.23 0.24,-0.24 0.02,0 0.03,0.01 0.03,0.03 0,0.03 -0.08,0.12 -0.24,0.29 -0.29,0.3 -0.5,0.45 -0.63,0.45 -0.19,0 -0.28,-0.11 -0.28,-0.33 0,-0.13 0.12,-0.38 0.36,-0.74 0.02,-0.02 0.04,-0.06 0.06,-0.1z"/>
   <path id="9" class="fil4" d="M41.02 10.54c-0.04,0.05 -0.12,0.14 -0.25,0.27 -0.14,0.15 -0.22,0.22 -0.23,0.22 -0.01,0 -0.02,-0.01 -0.02,-0.02 0,-0.05 0.22,-0.3 0.66,-0.75l0.37 -0.03 -0.52 0.81c-0.17,0.26 -0.25,0.43 -0.25,0.49 0,0.07 0.03,0.1 0.09,0.1 0.13,0 0.33,-0.15 0.61,-0.45 0.01,-0.01 0.03,-0.03 0.05,-0.06l0.06 -0.07c0.07,-0.08 0.11,-0.11 0.13,-0.11 0.02,0 0.03,0.01 0.03,0.03 0,0.03 -0.08,0.12 -0.24,0.29 -0.29,0.3 -0.5,0.45 -0.63,0.45 -0.19,0 -0.28,-0.11 -0.28,-0.33 0,-0.13 0.12,-0.38 0.36,-0.74 0.02,-0.02 0.04,-0.06 0.06,-0.1zm0.64 -1.12c0,-0.06 0.02,-0.11 0.06,-0.16 0.04,-0.05 0.09,-0.07 0.15,-0.07 0.09,0 0.14,0.05 0.14,0.15 0,0.06 -0.02,0.11 -0.06,0.16 -0.04,0.05 -0.09,0.08 -0.14,0.08 -0.1,0 -0.15,-0.05 -0.15,-0.15z"/>
   <path id="10" class="fil4" d="M41.99 11.43c0,0.12 0.05,0.18 0.16,0.18 0.13,0 0.3,-0.1 0.49,-0.31 0.24,-0.26 0.37,-0.51 0.37,-0.76 0,-0.17 -0.07,-0.26 -0.2,-0.26 -0.17,0 -0.36,0.15 -0.55,0.45 -0.18,0.28 -0.27,0.51 -0.27,0.7zm0.87 -0.23c0.01,0 0.02,0 0.04,0.01 0.02,0.01 0.03,0.01 0.04,0.01 0.16,0 0.3,-0.08 0.43,-0.23l0.07 -0.08c0.01,-0.01 0.03,-0.01 0.04,-0.01 0.01,0 0.02,0.01 0.02,0.03 0,0.01 -0,0.02 -0.01,0.03l-0.06 0.07c-0.15,0.18 -0.33,0.27 -0.53,0.27 -0.04,0 -0.08,-0 -0.12,-0.01 -0.26,0.28 -0.48,0.42 -0.69,0.42 -0.23,0 -0.35,-0.18 -0.35,-0.54 0,-0.06 0.01,-0.14 0.04,-0.24 -0.05,0.07 -0.09,0.1 -0.11,0.1 -0.02,0 -0.02,-0.01 -0.02,-0.02 0,-0.02 0.07,-0.11 0.21,-0.27 0.33,-0.36 0.63,-0.54 0.91,-0.54 0.24,0 0.36,0.12 0.36,0.37 0,0.17 -0.1,0.38 -0.29,0.63z"/>
   <path id="11" class="fil4" d="M43.5 11.68l0.68 -1.01c0,-0 0.01,-0.02 0.03,-0.05 0.09,-0.13 0.13,-0.22 0.13,-0.26 0,-0.05 -0.02,-0.07 -0.07,-0.07 -0.1,0 -0.3,0.16 -0.61,0.49 -0.04,0.05 -0.08,0.09 -0.13,0.14 -0.06,0.07 -0.1,0.11 -0.12,0.11 -0.02,0 -0.02,-0.01 -0.02,-0.02 0,-0.03 0.04,-0.09 0.12,-0.17l0.16 -0.18c0.28,-0.3 0.48,-0.45 0.61,-0.45 0.13,0 0.2,0.08 0.2,0.25 0,0.15 -0.07,0.34 -0.21,0.56 0.47,-0.54 0.79,-0.8 0.95,-0.8 0.13,0 0.2,0.08 0.2,0.25 0,0.12 -0.09,0.31 -0.26,0.55 -0.01,0.01 -0.03,0.04 -0.06,0.09 -0.16,0.22 -0.24,0.37 -0.24,0.44 0,0.06 0.03,0.09 0.08,0.09 0.08,0 0.27,-0.15 0.56,-0.44l0.24 -0.24c0.02,0 0.03,0.01 0.03,0.03 0,0.03 -0.08,0.12 -0.23,0.27l-0.03 0.03c-0.29,0.29 -0.48,0.44 -0.58,0.44 -0.16,0 -0.25,-0.12 -0.25,-0.37 0,-0.15 0.11,-0.36 0.33,-0.64 0.01,-0.02 0.04,-0.05 0.08,-0.1 0.1,-0.12 0.15,-0.2 0.15,-0.25 0,-0.04 -0.02,-0.06 -0.06,-0.06 -0.18,0 -0.62,0.45 -1.33,1.35l-0.36 0.04z"/>
  </g>
 </g>
</svg>
