<?xml version="1.0" encoding="UTF-8"?>
<!DOCTYPE svg PUBLIC "-//W3C//DTD SVG 1.1//EN" "http://www.w3.org/Graphics/SVG/1.1/DTD/svg11.dtd">
<!-- Creator: CorelDRAW 2019 (64-Bit) -->
<svg xmlns="http://www.w3.org/2000/svg" xml:space="preserve" width="230.673mm" height="53.3106mm" version="1.1" style="shape-rendering:geometricPrecision; text-rendering:geometricPrecision; image-rendering:optimizeQuality; fill-rule:evenodd; clip-rule:evenodd"
viewBox="0 0 23053.07 5327.77"
 xmlns:xlink="http://www.w3.org/1999/xlink">
 <defs>
  <style type="text/css">
   <![CDATA[
    .fil2 {fill:#3C3C3E}
    .fil1 {fill:#3C3C3E}
    .fil3 {fill:#DC2B1B}
    .fil4 {fill:#373435;fill-rule:nonzero}
    .fil0 {fill:#3C3C3E;fill-rule:nonzero}
   ]]>
  </style>
 </defs>
 <g id="Слой_x0020_1">
  <metadata id="CorelCorpID_0Corel-Layer"/>
  <g id="_2427725651680">
   <path class="fil0" d="M8816.49 1771.34c-23.12,258.06 -113.63,463.16 -271.54,615.31 -157.92,152.14 -374.58,228.21 -649.98,228.21 -298.51,0 -538.76,-98.7 -720.74,-296.1 -181.99,-197.4 -272.99,-458.84 -272.99,-784.31 0,-308.13 91.96,-564.27 275.88,-768.4 183.92,-204.14 428.98,-306.21 735.2,-306.21 244.58,0 449.68,69.33 615.3,207.99 165.63,138.66 257.1,314.88 274.44,528.64l-441.99 0c-23.11,-113.63 -74.62,-201.74 -154.54,-264.33 -79.93,-62.58 -180.55,-93.88 -301.88,-93.88 -125.17,0 -230.62,35.15 -316.31,105.44 -85.7,70.29 -145.88,156.47 -180.55,258.54 -34.67,102.07 -52,213.77 -52,335.09 0,211.85 49.11,380.84 147.33,506.99 98.22,126.14 230.14,189.21 395.76,189.21 275.4,0 432.35,-154.07 470.87,-462.2l447.76 0z"/>
   <path id="1" class="fil0" d="M11096.31 2565.75l-415.98 0c-13.47,-38.52 -23.11,-86.67 -28.88,-144.44 -125.18,125.18 -285.99,187.77 -482.42,187.77 -165.63,0 -295.62,-39.97 -389.99,-119.89 -94.36,-79.92 -141.54,-190.17 -141.54,-330.77 0,-63.55 8.18,-119.4 24.55,-167.55 16.37,-48.15 43.32,-88.59 80.88,-121.32 37.56,-32.74 73.18,-59.7 106.88,-80.89 33.7,-21.19 80.41,-38.52 140.1,-52 59.7,-13.48 107.85,-23.59 144.44,-30.33 36.59,-6.74 87.63,-13.96 153.11,-21.67 144.44,-19.26 241.21,-39.48 290.32,-60.66 49.11,-21.19 73.66,-60.66 73.66,-118.44 0,-132.89 -89.55,-199.33 -268.65,-199.33 -94.37,0 -163.7,16.85 -207.99,50.55 -44.29,33.71 -73.18,92.92 -86.67,177.66l-384.2 0c23.11,-335.09 253.24,-502.64 690.41,-502.64 433.31,0 649.97,161.77 649.97,485.31l0 644.19c0,188.73 17.34,323.54 52,404.43zm-447.75 -725.08c-48.15,28.89 -144.44,54.89 -288.88,78 -121.32,19.26 -200.29,43.33 -236.87,72.22 -42.37,36.59 -63.55,86.67 -63.55,150.22 0,61.62 19.74,110.25 59.21,145.88 39.49,35.63 94.85,53.45 166.11,53.45 109.77,0 197.88,-29.37 264.32,-88.11 66.45,-58.74 99.67,-140.11 99.67,-244.11l0 -167.55z"/>
   <path id="2" class="fil0" d="M12968.82 1049.15l0 378.43c-57.77,-11.55 -110.73,-17.33 -158.88,-17.33 -134.81,0 -233.99,42.85 -297.54,128.55 -63.56,85.7 -95.33,200.77 -95.33,345.21l0 681.75 -410.21 0 0 -1490.6 389.99 0 0 274.43c98.21,-206.06 259.02,-309.1 482.42,-309.1 19.26,0 49.11,2.89 89.54,8.66z"/>
   <path class="fil1" d="M13710.76 508.96l886.85 0c231.1,0 414.53,55.37 550.31,166.11 135.77,110.73 203.65,275.87 203.65,495.41 0,215.7 -67.41,378.92 -202.21,489.65 -134.81,110.74 -311.02,166.11 -528.64,166.11l-462.2 0 0 739.52 -447.75 0 0 -2056.8zm447.75 369.76l0 592.19 401.54 0c234.95,0 352.43,-98.22 352.43,-294.65 0,-198.37 -116.52,-297.55 -349.54,-297.55l-404.43 0zm3408.03 1687.04l-415.98 0c-13.47,-38.52 -23.11,-86.67 -28.88,-144.44 -125.18,125.18 -285.99,187.77 -482.42,187.77 -165.63,0 -295.62,-39.97 -389.99,-119.89 -94.36,-79.92 -141.54,-190.17 -141.54,-330.77 0,-63.55 8.18,-119.4 24.55,-167.55 16.37,-48.15 43.32,-88.59 80.88,-121.32 37.56,-32.74 73.18,-59.7 106.88,-80.89 33.7,-21.19 80.41,-38.52 140.1,-52 59.7,-13.48 107.85,-23.59 144.44,-30.33 36.59,-6.74 87.63,-13.96 153.11,-21.67 144.44,-19.26 241.21,-39.48 290.32,-60.66 49.11,-21.19 73.66,-60.66 73.66,-118.44 0,-132.89 -89.55,-199.33 -268.65,-199.33 -94.37,0 -163.7,16.85 -207.99,50.55 -44.29,33.71 -73.18,92.92 -86.67,177.66l-384.2 0c23.11,-335.09 253.24,-502.64 690.41,-502.64 433.31,0 649.97,161.77 649.97,485.31l0 644.19c0,188.73 17.34,323.54 52,404.43zm-447.75 -725.08c-48.15,28.89 -144.44,54.89 -288.88,78 -121.32,19.26 -200.29,43.33 -236.87,72.22 -42.37,36.59 -63.55,86.67 -63.55,150.22 0,61.62 19.74,110.25 59.21,145.88 39.49,35.63 94.85,53.45 166.11,53.45 109.77,0 197.88,-29.37 264.32,-88.11 66.45,-58.74 99.67,-140.11 99.67,-244.11l0 -167.55zm2275.63 -791.52l0 378.43c-57.77,-11.55 -110.73,-17.33 -158.88,-17.33 -134.81,0 -233.99,42.85 -297.54,128.55 -63.56,85.7 -95.33,200.77 -95.33,345.21l0 681.75 -410.21 0 0 -1490.6 389.99 0 0 274.43c98.21,-206.06 259.02,-309.1 482.42,-309.1 19.26,0 49.11,2.89 89.54,8.66zm1565 26l0 277.32 -303.32 0 0 701.97c0,44.29 0.96,76.55 2.89,96.78 1.93,20.22 8.66,40.92 20.22,62.1 11.55,21.19 29.37,35.15 53.45,41.89 24.08,6.74 58.25,10.1 102.55,10.1 50.08,0 91.48,-1.92 124.22,-5.78l0 311.99c-100.15,7.71 -182.96,11.55 -248.44,11.55 -179.11,0 -300.91,-31.29 -365.43,-93.88 -64.51,-62.59 -96.77,-183.44 -96.77,-362.54l0 -774.19 -248.44 0 0 -277.32 248.44 0 0 -327.36 407.32 0 0 327.36 303.32 0zm2044.53 433.31l-381.31 0c-11.56,-75.11 -39.97,-128.07 -85.22,-158.88 -45.26,-30.81 -111.22,-46.22 -197.89,-46.22 -73.17,0 -129.99,13 -170.43,39 -40.44,26 -60.66,62.11 -60.66,108.33 0,53.92 23.11,91.47 69.33,112.66 46.22,21.19 129.03,44.29 248.44,69.33 21.19,3.86 36.59,6.75 46.22,8.66 69.33,13.48 124.69,25.52 166.1,36.12 41.41,10.58 91.96,27.92 151.67,52 59.7,24.07 105.92,51.03 138.66,80.88 32.73,29.85 61.62,69.82 86.66,119.89 25.03,50.07 37.56,107.84 37.56,173.32 0,155.99 -60.66,279.25 -182,369.76 -121.32,90.51 -287.91,135.78 -499.75,135.78 -202.21,0 -368.8,-43.33 -499.76,-130 -130.95,-86.66 -197.4,-219.54 -199.32,-398.64l389.98 0c13.48,165.62 119.41,248.43 317.76,248.43 82.81,0 148.77,-16.85 197.88,-50.55 49.11,-33.7 73.66,-78.48 73.66,-134.33 0,-55.85 -22.15,-95.33 -66.44,-118.44 -44.29,-23.12 -126.14,-48.15 -245.55,-75.11 -9.62,-1.92 -17.33,-3.85 -23.11,-5.78 -13.48,-3.85 -43.33,-10.59 -89.55,-20.22 -46.22,-9.63 -78.48,-16.85 -96.77,-21.67 -18.3,-4.82 -48.15,-13 -89.55,-24.55 -41.4,-11.55 -71.74,-22.63 -90.99,-33.22 -19.26,-10.59 -44.77,-24.08 -76.55,-40.44 -31.78,-16.37 -55.37,-34.18 -70.78,-53.45 -15.41,-19.26 -32.26,-41.88 -50.55,-67.88 -18.3,-26 -30.82,-55.38 -37.56,-88.11 -6.75,-32.74 -10.11,-68.37 -10.11,-106.89 0,-146.36 56.81,-259.02 170.43,-337.98 113.63,-78.96 274.44,-118.44 482.43,-118.44 186.8,0 339.91,38.52 459.31,115.55 119.41,77.03 182,197.4 187.77,361.1z"/>
   <path class="fil2" d="M399.75 0l1700.96 0c219.86,0 399.75,179.9 399.75,399.76l0 1698.94c0,219.86 -179.89,399.76 -399.75,399.76l-1700.96 0c-23.63,0 -46.78,-2.1 -69.31,-6.08l345.4 -345.4 -305.19 -305.19 -357.69 357.69c-8.45,-32.22 -12.96,-66.01 -12.96,-100.79l0 -1698.94c0,-219.86 179.89,-399.76 399.75,-399.76zm388.99 828.14l101.17 -101.17c211.63,88.86 390.65,210.02 539.64,360.98 148.94,150.93 268.2,332.01 360.37,540.45l-101.52 101.52c-93.85,-205.9 -214.05,-385.91 -363.33,-537.19 -149.25,-151.14 -327.24,-273.51 -536.33,-364.58zm-149.6 149.6l101.15 -101.15c211.64,88.86 390.71,209.96 539.69,360.93 148.93,150.94 268.15,332.06 360.33,540.49l-101.51 101.51c-93.83,-205.91 -214.07,-385.89 -363.35,-537.18 -149.23,-151.16 -327.25,-273.49 -536.31,-364.59zm334.44 1466.98l-185.82 -185.82 113.12 -113.12 -529.09 -529.09 -113.12 113.12 -185.81 -185.81 517.84 -517.84c211.62,88.87 390.67,210 539.66,360.96 148.96,150.92 268.16,332.05 360.35,540.47l-517.13 517.13zm-95.06 -787.44c-40.11,-40.1 -105.14,-40.09 -145.27,0.04 -40.09,40.1 -40.09,105.11 0.02,145.21 40.11,40.11 105.14,40.13 145.22,0.03 40.13,-40.13 40.13,-105.17 0.03,-145.28zm59.82 -978.74l136.25 -136.25c439.71,160.88 737.31,463.85 900.71,900.71l-137.32 137.32c-93.81,-205.94 -214.06,-385.9 -363.36,-537.17 -149.21,-151.18 -327.24,-273.51 -536.29,-364.61z"/>
   <path class="fil3" d="M3243.96 0l1700.96 0c219.86,0 399.75,179.9 399.75,399.76l0 1655.64 -239.59 -239.5 -179.93 -180.67c-68.31,-68.3 -96.23,-163.78 -86.68,-260 10.29,-105.75 2.21,-218.85 -37.46,-323.15 -49.94,-130.71 -148.35,-247.49 -318.74,-318 -41.12,-17.64 -86.67,-32.32 -136.6,-43.32 -24.98,-5.14 -80.8,-19.85 -99.89,-11.76l-2.94 2.21 -2.21 2.2 1.46 13.23c81.52,145.42 149.83,266.6 230.64,412.02 13.94,24.24 11,63.89 -8.09,86.65 -44.07,51.43 -95.5,95.47 -151.32,131.47 -10.27,6.63 -20.54,13.22 -30.83,19.1 -8.82,5.14 -18.36,10.28 -27.18,14.69l-10.26 5.15c-16.9,8.8 -33.79,16.15 -51.42,23.51 -11.74,5.14 -24.24,9.53 -37.46,13.95 -13.95,5.14 -27.91,9.54 -42.59,13.22l-15.43 3.66c-18.36,5.15 -37.46,8.82 -56.54,11.75 -29.4,5.15 -64.65,-13.21 -78.59,-38.2 -51.43,-92.53 -103.57,-185.08 -154.97,-277.62 -21.31,-38.18 -42.59,-75.62 -63.9,-113.83 -5.87,-9.53 -17.63,-12.47 -25.71,-7.33l-7.33 7.33c-5.89,11.01 -11.76,22.78 -16.17,33.79 -3.67,8.8 -7.33,16.88 -11.01,25.7 -11.02,27.17 -19.82,55.82 -26.44,84.47 -2.2,8.8 -4.4,18.36 -6.6,27.16 -1.48,8.81 -2.94,16.89 -4.42,25.71 -2.94,13.94 -4.41,27.16 -5.87,41.11 -0.74,9.55 -2.21,19.85 -2.94,29.38l-0.73 17.63c-7.36,162.3 37.46,317.27 107.21,399.53 113.84,132.2 340.78,224 511.91,208.57 93.27,-8.07 185.8,20.58 251.17,86.67l509.97 509.97c-23.47,4.33 -47.63,6.62 -72.31,6.62l-1700.96 0c-219.86,0 -399.75,-179.9 -399.75,-399.76l0 -1698.94c0,-219.86 179.89,-399.76 399.75,-399.76z"/>
   <path class="fil3" d="M399.75 2829.3l1700.96 0c219.86,0 399.75,179.9 399.75,399.76l0 1698.94c0,219.86 -179.89,399.76 -399.75,399.76l-608.92 0 37.94 -24.28 -84.44 -168.07c40.34,-37.27 76.83,-78.02 108.92,-121.73l192.81 45.67 101.8 -212.59 -165.75 -102.09c9.41,-36.09 16.28,-73.11 20.38,-110.89l193.93 -43.54 -19.64 -231.53 -199.05 -18.09c-18.11,-63.69 -44.25,-124.38 -77.37,-181.12l133.98 -134.79 -156.77 -182.2 -175.74 86.64c-93.52,-75.95 -204.28,-134.4 -326.24,-169.69l-10.13 -183.66 -250.85 -29.11 -56.55 175.6c-117.42,5.41 -228.92,31.44 -330.32,74.2l-140.27 -128.95 -207.41 132.78 85.43 163.83c-40.97,37.6 -78,78.83 -110.53,123.1l-55.91 -12.46 0 -845.75c0,-219.86 179.89,-399.76 399.75,-399.76zm88.83 2498.47l-88.83 0c-107.41,0 -205.27,-42.96 -277.29,-112.52l84.51 -43.11c81.97,66.61 177.21,119.76 281.61,155.63zm316.37 -1387.01c366.69,0 663.95,273.07 663.95,609.92 0,112.39 -33.12,217.66 -90.84,308.07 0.61,-12.55 0.97,-25.14 0.97,-37.83 0,-438.38 -368.64,-797.68 -836.67,-830.57 80.55,-31.9 169.32,-49.6 262.6,-49.6zm-0.03 -62.45c404.28,0 732.03,301.03 732.03,672.37 0,371.34 -327.75,672.37 -732.03,672.37 -404.28,0 -732.02,-301.03 -732.02,-672.37 0,-371.34 327.74,-672.37 732.02,-672.37z"/>
   <path class="fil2" d="M3243.96 2829.3l1700.96 0c219.86,0 399.75,179.9 399.75,399.76l0 1698.94c0,219.86 -179.89,399.76 -399.75,399.76l-1700.96 0c-219.86,0 -399.75,-179.9 -399.75,-399.76l0 -1698.94c0,-219.86 179.89,-399.76 399.75,-399.76zm1643.27 526.71l21.33 21.33c26.77,26.78 28.91,68.74 4.74,94.8l-13.05 13.99 -26.77 29.16 -18.24 19.66 -3.32 3.33 -20.17 22.05 -3.55 3.56 -18.25 19.66 -16.12 17.55 -10.66 11.6 -18.26 19.69 -13.48 14.45 -13.52 14.46 -18.25 19.66 -27.02 28.93 -61.61 66.35 -247.22 266.65 -18.26 19.68 -110.91 119.44 -26.77 28.67 31.05 31.06 -0.01 0.01 6.64 6.64c15.86,15.83 13.28,44.06 -5.68,63.03l-162.13 162.12c-19.2,19.2 -47.19,21.54 -63.05,5.7l-6.63 -6.64 -41.69 41.69 23.45 20.16 -31.76 31.76 -23.46 -20.15 -18.5 18.5 23.47 20.13 -31.76 31.78 -23.7 -19.92 -18.47 18.47 23.68 19.92 -31.99 32.01 -23.47 -20.15 -18.49 18.49 23.67 19.92 -31.96 31.98 -23.46 -20.15 -18.49 18.49 23.7 19.92 -32.01 31.99 -23.45 -20.15 -18.49 18.49 23.45 20.16 -31.74 31.73 -23.46 -20.14 -18.5 18.5 23.46 20.15 -31.74 31.74 -23.71 -19.9 -18.25 18.25 23.47 20.13 -31.77 31.78 -23.69 -19.92 -18.49 18.49 23.7 19.91 -32 32 -23.47 -20.14 -53.34 53.34 -23.95 -23.95 -44.32 44.31c-23.46,23.47 -54.5,35.55 -86.27,36.5l-9 0c-32.22,-1.42 -64.47,-14.69 -89.36,-39.59l-112.57 -112.57 30.58 -30.59 112.59 112.59c33.9,33.9 88.39,34.37 121.56,1.19l44.31 -44.32 -43.83 -43.84 -69.44 69.44 -146.47 -146.47 69.44 -69.44 -100.25 -100.26 25.13 -25.13 -0.01 0 -0.25 0.25 -23.47 -20.16 31.77 -31.76 23.7 19.92 18.49 -18.49 -23.7 -19.92 32 -31.99 23.47 20.14 18.47 -18.47 -23.7 -19.93 32.01 -31.99 23.46 20.15 18.49 -18.49 -23.48 -20.15 31.77 -31.75 23.45 20.16 18.5 -18.5 -23.46 -20.16 31.74 -31.75 23.71 19.92 18.25 -18.25 -23.45 -20.18 31.74 -31.72 23.71 19.9 18.26 -18.26 -23.47 -20.14 31.75 -31.76 23.71 19.91 18.49 -18.49 -23.7 -19.92 32 -32 23.45 20.17 18.51 -18.51 -0.01 0 -23.45 -20.14 31.74 -31.75 23.46 20.14 0.01 0 70.15 -70.15 -6.63 -6.64c-15.88,-15.88 -13.51,-43.85 5.69,-63.05l162.11 -162.13c18.96,-18.96 47.17,-21.56 63.06,-5.68l6.63 6.64 0.01 -0.01 31.04 31.05 28.68 -26.77 119.45 -110.92 19.67 -18.24 333 -308.85 7.35 -6.87 21.58 -20.15 19.66 -18.24 14.93 -13.98 6.42 -5.95 7.58 -7.08 19.66 -18.26 29.16 -26.79 19.67 -18.25 17.06 -16.11 11.86 -10.91 19.68 -18.25 29.15 -26.78 13.98 -13.03c26.07,-24.18 68.03,-22.06 94.81,4.74l21.33 21.33 50.47 -50.48c-1.18,-6.4 -0.71,-13.98 1.19,-21.58 0.96,-4.26 2.38,-8.05 4.25,-11.86 1.93,-4.25 4.31,-8.04 6.91,-11.59l0.81 -1.03 0.82 -1.03 1.65 -2.05 1.67 -2.04 1.26 -1.53 2.55 -3.03 0.43 -0.5c5.73,-6.71 11.71,-13.22 17.96,-19.5l1.87 -1.87 0.01 -0.01 1.42 -1.4 0.01 0c6.16,-6.04 12.52,-11.86 19.06,-17.41l1.01 -0.85 1.01 -0.85 3.05 -2.52 1.03 -0.83 1.02 -0.83 1.03 -0.82 1.03 -0.82 1.03 -0.81c10.66,-7.83 22.3,-11.86 32.72,-12.81l8.49 -0.02c6.9,0.72 12.84,2.86 16.39,6.42l71.11 71.12c10.2,10.19 9.25,36.73 -6.41,57.58l-0.81 1.03 -0.82 1.03 -1.14 1.43 -0.36 0.44 -1.58 1.93 -1.43 1.74 -3.21 3.8 -0.56 0.66 -0.26 0.3 -2.39 2.73 -0.14 0.17 -2.15 2.4 -0.04 0.06 -3.1 3.4 -2.71 2.91c-2.42,2.58 -4.89,5.12 -7.39,7.62l-2.36 2.34 -0.01 0 -0.94 0.93 -0.01 0 -1.43 1.39 -1.92 1.84c-1.92,1.83 -3.88,3.64 -5.84,5.42l-0.98 0.89 -3.96 3.52 -1 0.87 -0.5 0.43 -2.51 2.15 -3.04 2.55 -1.01 0.84 -2.56 2.08 -0.51 0.41 -1.03 0.83 -1.03 0.82 -1.03 0.81c-3.56,2.6 -7.35,4.98 -11.61,6.88 -3.79,1.9 -7.6,3.33 -11.87,4.28 -7.58,1.87 -15.16,2.37 -21.54,1.17l-50.48 50.48zm-122.32 276.37l18.26 -19.69 -0.23 -0.23 -18.27 19.68 0.24 0.24z"/>
   <path class="fil4" d="M11603 3441.86c-163.44,50.83 -308.61,146.26 -435.85,285.94 -136.4,151.02 -204.4,307.15 -204.4,469.5 0,129.8 68.01,194.89 204.4,194.89 126.51,0 238.77,-50.46 337.49,-151.02 143.34,-147.36 215.01,-314.83 215.01,-502.41 0,-111.52 -38.76,-210.61 -116.65,-296.91zm-324.7 1453.11c68.75,5.48 132.37,8.4 190.87,8.4 244.99,0 451.95,-63.62 621.25,-190.87 109.33,-81.91 195.99,-182.83 260.35,-302.03 67.65,-125.05 101.65,-253.39 101.65,-384.66 0,-160.16 -47.53,-297.65 -142.6,-412.46 -74.95,79.34 -154.3,198.18 -238.77,356.88 -111.89,209.88 -181.73,336.03 -208.79,378.08 -191.23,292.16 -386.13,474.26 -583.95,546.66zm1053.09 -1308.31c101.29,128.34 151.75,272.04 151.75,430.37 0,141.5 -34.74,276.8 -103.85,406.24 -67.28,124.69 -159.06,230.73 -275.34,318.12 -174.41,129.8 -396.36,194.89 -665.49,194.89 -29.98,0 -74.96,-0.73 -134.57,-2.2 -59.59,-1.46 -104.58,-2.19 -134.56,-2.19 -25.59,0 -63.62,2.56 -114.08,7.68 -50.46,5.13 -88.5,7.69 -114.09,7.69 -145.16,0 -217.57,-25.96 -217.57,-77.89 0,-32.91 35.11,-49.36 104.95,-49.36 40.58,0 100.92,9.14 181,27.42 80.08,18.29 140.41,27.42 181,27.42 142.97,0 289.96,-133.1 441.35,-399.65 4.39,-7.69 27.42,-50.1 68.74,-127.25 177.71,-332.74 364.56,-592.36 560.18,-778.85 -113.72,-100.55 -263.27,-151.01 -449.02,-151.01 -49.73,0 -106.4,5.85 -168.93,17.18 71.67,94.34 107.49,198.19 107.49,311.91 0,188.31 -69.84,355.05 -209.88,500.21 -115.55,119.94 -242.43,179.91 -380.28,179.91 -96.53,0 -172.95,-27.79 -230.36,-83.74 -57.04,-55.95 -85.57,-131.64 -85.57,-227.44 0,-172.95 76.79,-327.99 230,-464.74 131.27,-117.01 289.23,-199.29 474.26,-246.82 -71.67,-39.13 -151.75,-58.87 -240.97,-58.87 -143.7,0 -272.41,45.71 -385.76,136.76 -102.02,81.91 -183.56,192.7 -244.26,333.11 -3.66,8.4 -17.18,60.33 -40.58,155.03 -20.85,83.01 -32.91,127.98 -36.57,134.56 -9.87,0 -14.99,-10.6 -14.99,-31.08 0,-114.45 39.13,-241.33 117.74,-381.37 64.36,-114.81 147.73,-205.86 249.75,-272.77 108.6,-71.31 225.97,-107.14 352.49,-107.14 105.67,0 201.48,26.33 287.03,78.62 74.23,-9.87 132.01,-14.99 173.32,-14.99 214.28,0 387.59,56.31 519.6,169.3 125.05,-96.9 212.81,-145.53 263.64,-145.53 7.31,1.46 10.6,3.66 10.6,7.32 -8.41,9.5 -40.59,34.37 -96.17,74.95 -71.67,52.29 -115.55,87.03 -132,104.22z"/>
   <path id="1" class="fil4" d="M12616.23 4455.46c-17.92,19.75 -52.29,57.4 -103.85,112.25 -58.5,62.89 -91.05,94.34 -97.63,94.34 -5.49,0 -8.41,-2.2 -8.41,-6.59 0,-20.48 92.88,-126.88 279,-318.48l157.96 -10.6 -218.66 341.89c-70.94,111.89 -106.4,181 -106.4,206.59 0,27.79 12.43,41.68 37.3,41.68 53.76,0 139.31,-63.99 257.06,-191.6 3.29,-4.02 10.6,-12.43 21.21,-24.49l25.59 -27.79c29.98,-32.18 47.9,-48.27 53.75,-48.27 8.41,0 12.8,3.66 12.8,10.97 0,12.06 -33.64,52.29 -100.56,121.04 -123.95,127.24 -213.18,190.87 -267.29,190.87 -79.34,0 -118.84,-46.07 -118.84,-138.22 0,-55.95 50.46,-160.15 151.39,-313 6.95,-9.87 15.72,-23.77 25.59,-40.58zm270.58 -473.89c0,-24.86 8.77,-47.54 26.32,-68.02 17.55,-20.11 38.77,-30.34 63.99,-30.34 39.13,0 58.87,20.84 58.87,62.89 0,23.77 -8.77,46.07 -26.32,67.28 -17.56,21.58 -37.67,32.18 -60.7,32.18 -41.32,0 -62.16,-21.21 -62.16,-63.99z"/>
   <path id="2" class="fil4" d="M13176.77 4370.99c-27.78,30.35 -76.41,83.74 -146.26,160.89 -81.17,88.12 -124.68,132.37 -130.54,132.37 -6.95,0 -10.6,-2.93 -10.6,-8.78 0,-13.52 57.41,-81.9 172.22,-205.49l112.62 -121.04c25.6,-61.79 55.59,-92.5 89.95,-92.5 29.25,0 43.88,13.89 43.88,41.68 0,23.04 -15.36,41.31 -46.08,54.85 -36.2,10.6 -54.48,36.93 -54.48,79.34 0,29.25 6.95,72.77 20.48,130.18 13.53,57.4 20.11,100.92 20.11,130.17 0,44.97 -9.14,88.13 -27.79,129.81l89.95 -96.53c50.83,-54.12 78.62,-81.55 83.74,-81.55 8.4,0 12.79,3.66 12.79,10.97 0,10.6 -28.52,46.07 -85.93,106.04 -130.54,137.12 -241.7,205.86 -333.11,205.86 -99.09,0 -148.82,-38.04 -148.82,-113.72 0,-18.29 6.59,-34.74 19.75,-49 13.16,-14.26 29.25,-21.58 47.9,-21.58 30.71,0 46.07,13.9 46.07,41.68 0,8.05 -4.39,21.58 -13.16,40.95 -8.41,19.38 -12.8,33.64 -12.8,42.78 0,15.72 10.97,23.77 33.28,23.77 68.38,0 124.68,-62.52 168.93,-187.57 34.74,-98.37 52.3,-188.68 52.3,-270.95 0,-9.14 -0.37,-19.75 -1.1,-31.08l-3.3 -51.56z"/>
   <path id="3" class="fil4" d="M13577.18 4455.46c-17.92,19.75 -52.29,57.4 -103.85,112.25 -58.5,62.89 -91.05,94.34 -97.63,94.34 -5.49,0 -8.41,-2.2 -8.41,-6.59 0,-9.86 46.44,-66.55 139.31,-169.66 102.02,-113.72 159.06,-179.54 171.49,-197.46l95.07 -141.87 -106.04 0 18.29 -32.91 107.13 0 133.83 -213.18 141.51 -10.6 -140.41 223.78 253.03 0 -17.19 32.91 -254.12 0 -327.63 521.79c-68.38,109.33 -102.39,178.07 -102.39,206.59 0,27.79 12.43,41.68 37.3,41.68 47.9,0 133.47,-63.99 257.06,-191.6 61.06,-63.26 94.7,-96.9 100.55,-100.56 8.41,0 12.8,3.66 12.8,10.97 0,12.06 -33.64,52.29 -100.56,121.04 -123.95,127.24 -213.18,190.87 -267.29,190.87 -79.34,0 -118.84,-46.07 -118.84,-138.22 0,-55.95 50.46,-160.15 151.39,-313 6.95,-9.87 15.72,-23.77 25.59,-40.58z"/>
   <path id="4" class="fil4" d="M13896.39 4936.29l294.36 -439.15c40.58,-60.7 61.06,-99.83 61.06,-117.75 0,-19.38 -9.87,-28.88 -29.98,-28.88 -40.95,0 -127.25,68.75 -258.52,206.23 -17.55,19.38 -35.47,39.49 -53.39,61.06 -24.86,31.08 -40.95,46.44 -49,46.44 -6.95,0 -10.6,-2.93 -10.6,-8.78 0,-12.06 16.82,-36.2 50.46,-72.77l69.48 -76.05c117.38,-127.61 203.67,-191.23 259.62,-191.23 57.03,0 85.56,31.44 85.56,94.33 0,63.26 -35.1,153.94 -105.3,271.68l2.19 -2.19c59.24,-59.24 121.4,-116.65 186.48,-172.22 23.78,-62.16 43.88,-104.95 61.07,-128.35 30.71,-42.04 70.2,-63.25 118.84,-63.25 33.64,0 50.46,11.69 50.46,35.47 0,24.86 -42.41,68.74 -127.25,131.63l-32.91 24.5c-59.96,44.6 -89.94,98.36 -89.94,161.98 0,39.13 18.28,58.87 54.48,58.87 47.17,0 102.75,-35.11 166.74,-105.31 8.41,1.47 12.8,4.76 12.8,10.61 0,25.59 -23.04,53.02 -68.75,82.63 -42.77,27.06 -78.25,40.59 -106.03,40.59 -61.43,0 -92.14,-28.52 -92.14,-85.57 0,-20.84 9.5,-55.95 28.15,-105.3 -85.2,70.94 -193.43,189.4 -324.7,355.78l-153.22 14.99z"/>
   <path id="5" class="fil4" d="M14784.2 4455.46c-17.92,19.75 -52.29,57.4 -103.85,112.25 -58.5,62.89 -91.05,94.34 -97.63,94.34 -5.49,0 -8.41,-2.2 -8.41,-6.59 0,-20.48 92.88,-126.88 279,-318.48l157.96 -10.6 -218.66 341.89c-70.94,111.89 -106.4,181 -106.4,206.59 0,27.79 12.43,41.68 37.3,41.68 53.76,0 139.31,-63.99 257.06,-191.6 3.29,-4.02 10.6,-12.43 21.21,-24.49l25.59 -27.79c29.98,-32.18 47.9,-48.27 53.75,-48.27 8.41,0 12.8,3.66 12.8,10.97 0,12.06 -33.64,52.29 -100.56,121.04 -123.95,127.24 -213.18,190.87 -267.29,190.87 -79.34,0 -118.84,-46.07 -118.84,-138.22 0,-55.95 50.46,-160.15 151.39,-313 6.95,-9.87 15.72,-23.77 25.59,-40.58zm270.58 -473.89c0,-24.86 8.77,-47.54 26.32,-68.02 17.55,-20.11 38.77,-30.34 63.99,-30.34 39.13,0 58.87,20.84 58.87,62.89 0,23.77 -8.77,46.07 -26.32,67.28 -17.56,21.58 -37.67,32.18 -60.7,32.18 -41.32,0 -62.16,-21.21 -62.16,-63.99z"/>
   <path id="6" class="fil4" d="M15888.11 3595.44l-547.01 929.13c-118.85,200.75 -178.44,316.65 -178.44,348.1 0,27.78 21.94,41.68 65.45,41.68 88.49,0 165.28,-40.59 230.36,-121.76 56.32,-70.58 92.51,-153.21 108.23,-247.19 3.3,-20.84 6.96,-51.92 10.6,-93.97 8.05,-89.21 33.65,-133.83 77.16,-133.83 42.04,0 63.25,29.98 63.25,89.95 0,96.16 -46.07,205.86 -138.58,329.09 4.03,0 10.6,1.1 18.65,3.29 8.05,2.2 14.63,3.3 18.65,3.3 56.67,0 115.92,-32.18 178.08,-96.17l31.08 -32.18c3.29,-5.12 8.4,-7.32 14.99,-7.32 5.49,0 8.4,4.03 8.4,12.8 0,4.76 -0.73,8.4 -2.19,10.6l-24.5 29.25c-64.35,75.69 -138.57,113.72 -222.68,113.72 -12.79,0 -29.98,-1.1 -51.56,-3.66 -110.42,118.11 -222.68,176.98 -337.13,176.98 -84.83,0 -127.24,-46.81 -127.24,-140.41 0,-50.83 27.78,-132 83,-243.53l2.2 -4.02 -69.85 78.25c-15.72,17.55 -25.95,26.69 -31.08,26.69 -6.95,0 -10.6,-2.93 -10.6,-8.78 0,-5.48 14.63,-25.59 43.88,-59.96 128.71,-150.65 246.09,-317.02 352.49,-499.12l280.82 -480.83 153.58 -20.11z"/>
   <path id="7" class="fil4" d="M16356.52 4750.53c-38.4,60.7 -57.77,102.02 -57.77,124.32 0,26.33 11.33,39.5 34.37,39.5 36.93,0 116.28,-62.53 237.67,-187.21 2.93,-2.93 20.12,-21.58 51.56,-56.67 27.79,-30.72 44.24,-46.08 49.36,-46.08 8.41,0 12.8,2.93 12.8,8.78 0,12.06 -28.88,48.26 -86.3,108.23 -130.9,137.12 -220.48,205.86 -268.75,205.86 -68.74,0 -103.12,-49.73 -103.12,-149.19 0,-13.53 3.3,-34.74 10.24,-63.26 -121.76,141.51 -217.21,212.45 -286.67,212.45 -80.45,0 -120.67,-46.07 -120.67,-138.22 0,-61.42 53.75,-171.12 160.88,-329.09l16.09 -23.77c-127.61,137.12 -194.16,205.86 -199.28,205.86 -6.95,0 -10.6,-2.2 -10.6,-6.59 0,-17.91 92.87,-123.95 278.26,-318.11l157.23 -8.77 -231.46 362c-61.43,97.26 -92.14,158.32 -92.14,184.29 0,26.33 11.7,39.5 35.47,39.5 126.15,0 303.49,-192.34 532.02,-577.37l147.73 -8.4 -266.92 421.96z"/>
   <path id="8" class="fil4" d="M16860.02 4455.46c-17.92,19.75 -52.29,57.4 -103.85,112.25 -58.5,62.89 -91.05,94.34 -97.63,94.34 -5.49,0 -8.41,-2.2 -8.41,-6.59 0,-9.86 46.44,-66.55 139.31,-169.66 102.02,-113.72 159.06,-179.54 171.49,-197.46l95.07 -141.87 -106.04 0 18.29 -32.91 107.13 0 133.83 -213.18 141.51 -10.6 -140.41 223.78 253.03 0 -17.19 32.91 -254.12 0 -327.63 521.79c-68.38,109.33 -102.39,178.07 -102.39,206.59 0,27.79 12.43,41.68 37.3,41.68 47.9,0 133.47,-63.99 257.06,-191.6 61.06,-63.26 94.7,-96.9 100.55,-100.56 8.41,0 12.8,3.66 12.8,10.97 0,12.06 -33.64,52.29 -100.56,121.04 -123.95,127.24 -213.18,190.87 -267.29,190.87 -79.34,0 -118.84,-46.07 -118.84,-138.22 0,-55.95 50.46,-160.15 151.39,-313 6.95,-9.87 15.72,-23.77 25.59,-40.58z"/>
   <path id="9" class="fil4" d="M17343.05 4455.46c-17.92,19.75 -52.29,57.4 -103.85,112.25 -58.5,62.89 -91.05,94.34 -97.63,94.34 -5.49,0 -8.41,-2.2 -8.41,-6.59 0,-20.48 92.88,-126.88 279,-318.48l157.96 -10.6 -218.66 341.89c-70.94,111.89 -106.4,181 -106.4,206.59 0,27.79 12.43,41.68 37.3,41.68 53.76,0 139.31,-63.99 257.06,-191.6 3.29,-4.02 10.6,-12.43 21.21,-24.49l25.59 -27.79c29.98,-32.18 47.9,-48.27 53.75,-48.27 8.41,0 12.8,3.66 12.8,10.97 0,12.06 -33.64,52.29 -100.56,121.04 -123.95,127.24 -213.18,190.87 -267.29,190.87 -79.34,0 -118.84,-46.07 -118.84,-138.22 0,-55.95 50.46,-160.15 151.39,-313 6.95,-9.87 15.72,-23.77 25.59,-40.58zm270.58 -473.89c0,-24.86 8.77,-47.54 26.32,-68.02 17.55,-20.11 38.77,-30.34 63.99,-30.34 39.13,0 58.87,20.84 58.87,62.89 0,23.77 -8.77,46.07 -26.32,67.28 -17.56,21.58 -37.67,32.18 -60.7,32.18 -41.32,0 -62.16,-21.21 -62.16,-63.99z"/>
   <path id="10" class="fil4" d="M17754.41 4833.9c0,52.29 22.67,78.25 67.64,78.25 56.32,0 125.42,-43.51 206.96,-130.9 103.49,-110.79 155.4,-217.57 155.4,-320.31 0,-73.5 -27.79,-110.43 -83.74,-110.43 -73.49,0 -151.01,62.89 -232.56,188.67 -75.68,116.28 -113.71,214.65 -113.71,294.72zm368.57 -97.26c3.3,0 9.14,1.1 16.82,3.29 8.05,2.2 13.9,3.3 18.29,3.3 67.65,0 127.98,-32.18 181.36,-96.9l28.16 -32.91c4.39,-4.03 10.6,-5.86 18.65,-5.86 5.85,0 8.77,4.03 8.77,12.8 0,4.76 -0.73,8.4 -2.2,10.6l-24.49 28.88c-64.36,76.06 -138.95,114.09 -224.15,114.09 -15.72,0 -32.17,-1.1 -49.36,-3.66 -108.23,118.11 -205.13,176.98 -290.33,176.98 -97.63,0 -146.63,-76.06 -146.63,-228.17 0,-25.96 5.86,-59.6 17.19,-100.93 -22.67,29.25 -38.76,43.88 -48.27,43.88 -6.95,0 -10.6,-2.93 -10.6,-8.41 0,-9.5 29.99,-46.8 89.95,-112.62 138.94,-151.75 267.65,-227.8 386.13,-227.8 100.92,0 151.38,52.66 151.38,158.33 0,72.77 -40.22,161.25 -120.67,265.1z"/>
   <path id="11" class="fil4" d="M18390.64 4938.49l285.58 -427.46c0.73,-0.73 5.48,-7.32 13.89,-20.11 37.3,-54.49 55.95,-91.41 55.95,-111.53 0,-19.38 -9.87,-28.88 -29.98,-28.88 -40.95,0 -127.25,68.75 -258.52,206.23 -17.55,19.38 -35.47,39.49 -53.39,61.06 -24.86,31.08 -40.95,46.44 -49,46.44 -6.95,0 -10.6,-2.93 -10.6,-8.78 0,-12.06 16.82,-36.2 50.46,-72.77l69.48 -76.05c117.38,-127.61 203.67,-191.23 259.62,-191.23 57.03,0 85.56,34.73 85.56,103.85 0,63.25 -29.25,142.23 -88.12,236.2 200.38,-226.7 333.83,-340.05 400.38,-340.05 55.22,0 82.64,35.47 82.64,106.4 0,51.92 -36.2,129.07 -108.23,230.73 -4.39,6.22 -13.16,19.01 -26.69,37.3 -68.01,93.97 -102.02,155.4 -102.02,184.66 0,26.69 11.7,39.86 35.11,39.86 35.83,0 114.45,-62.53 236.57,-187.21l100.56 -102.76c9.14,0 13.89,3.66 13.89,10.97 0,12.8 -31.81,51.19 -95.43,114.45l-12.8 13.16c-122.85,122.86 -204.76,184.3 -245.35,184.3 -69.85,0 -104.95,-51.93 -104.95,-155.77 0,-62.52 46.8,-152.85 140.41,-270.95 5.85,-7.31 16.82,-20.84 33.27,-40.94 42.05,-51.56 63.26,-86.3 63.26,-104.22 0,-16.45 -8.05,-24.86 -24.5,-24.86 -75.32,0 -262.9,190.87 -563.83,572.98l-153.22 15z"/>
  </g>
 </g>
</svg>
