<?xml version="1.0" encoding="UTF-8"?>
<!DOCTYPE svg PUBLIC "-//W3C//DTD SVG 1.1//EN" "http://www.w3.org/Graphics/SVG/1.1/DTD/svg11.dtd">
<!-- Creator: CorelDRAW 2019 (64-Bit) -->
<svg xmlns="http://www.w3.org/2000/svg" xml:space="preserve" width="8.636mm" height="1.9956mm" version="1.1" style="shape-rendering:geometricPrecision; text-rendering:geometricPrecision; image-rendering:optimizeQuality; fill-rule:evenodd; clip-rule:evenodd"
viewBox="0 0 15.97 3.69"
 xmlns:xlink="http://www.w3.org/1999/xlink">
 <defs>
  <style type="text/css">
   <![CDATA[
    .fil2 {fill:#3C3C3E}
    .fil1 {fill:#3C3C3E}
    .fil3 {fill:#DC2B1B}
    .fil4 {fill:#373435;fill-rule:nonzero}
    .fil0 {fill:#3C3C3E;fill-rule:nonzero}
   ]]>
  </style>
 </defs>
 <g id="Слой_x0020_1">
  <metadata id="CorelCorpID_0Corel-Layer"/>
  <g id="_2427801908864">
   <path class="fil0" d="M6.11 1.23c-0.02,0.18 -0.08,0.32 -0.19,0.43 -0.11,0.11 -0.26,0.16 -0.45,0.16 -0.21,0 -0.37,-0.07 -0.5,-0.21 -0.13,-0.14 -0.19,-0.32 -0.19,-0.54 0,-0.21 0.06,-0.39 0.19,-0.53 0.13,-0.14 0.3,-0.21 0.51,-0.21 0.17,0 0.31,0.05 0.43,0.14 0.11,0.1 0.18,0.22 0.19,0.37l-0.31 0c-0.02,-0.08 -0.05,-0.14 -0.11,-0.18 -0.06,-0.04 -0.13,-0.06 -0.21,-0.06 -0.09,0 -0.16,0.02 -0.22,0.07 -0.06,0.05 -0.1,0.11 -0.13,0.18 -0.02,0.07 -0.04,0.15 -0.04,0.23 0,0.15 0.03,0.26 0.1,0.35 0.07,0.09 0.16,0.13 0.27,0.13 0.19,0 0.3,-0.11 0.33,-0.32l0.31 0z"/>
   <path id="1" class="fil0" d="M7.69 1.78l-0.29 0c-0.01,-0.03 -0.02,-0.06 -0.02,-0.1 -0.09,0.09 -0.2,0.13 -0.33,0.13 -0.11,0 -0.2,-0.03 -0.27,-0.08 -0.07,-0.06 -0.1,-0.13 -0.1,-0.23 0,-0.04 0.01,-0.08 0.02,-0.12 0.01,-0.03 0.03,-0.06 0.06,-0.08 0.03,-0.02 0.05,-0.04 0.07,-0.06 0.02,-0.01 0.06,-0.03 0.1,-0.04 0.04,-0.01 0.07,-0.02 0.1,-0.02 0.03,-0 0.06,-0.01 0.11,-0.01 0.1,-0.01 0.17,-0.03 0.2,-0.04 0.03,-0.01 0.05,-0.04 0.05,-0.08 0,-0.09 -0.06,-0.14 -0.19,-0.14 -0.07,0 -0.11,0.01 -0.14,0.04 -0.03,0.02 -0.05,0.06 -0.06,0.12l-0.27 0c0.02,-0.23 0.18,-0.35 0.48,-0.35 0.3,0 0.45,0.11 0.45,0.34l0 0.45c0,0.13 0.01,0.22 0.04,0.28zm-0.31 -0.5c-0.03,0.02 -0.1,0.04 -0.2,0.05 -0.08,0.01 -0.14,0.03 -0.16,0.05 -0.03,0.03 -0.04,0.06 -0.04,0.1 0,0.04 0.01,0.08 0.04,0.1 0.03,0.02 0.07,0.04 0.12,0.04 0.08,0 0.14,-0.02 0.18,-0.06 0.05,-0.04 0.07,-0.1 0.07,-0.17l0 -0.12z"/>
   <path id="2" class="fil0" d="M8.99 0.73l0 0.26c-0.04,-0.01 -0.08,-0.01 -0.11,-0.01 -0.09,0 -0.16,0.03 -0.21,0.09 -0.04,0.06 -0.07,0.14 -0.07,0.24l0 0.47 -0.28 0 0 -1.03 0.27 0 0 0.19c0.07,-0.14 0.18,-0.21 0.33,-0.21 0.01,0 0.03,0 0.06,0.01z"/>
   <path class="fil1" d="M9.5 0.35l0.61 0c0.16,0 0.29,0.04 0.38,0.12 0.09,0.08 0.14,0.19 0.14,0.34 0,0.15 -0.05,0.26 -0.14,0.34 -0.09,0.08 -0.22,0.12 -0.37,0.12l-0.32 0 0 0.51 -0.31 0 0 -1.42zm0.31 0.26l0 0.41 0.28 0c0.16,0 0.24,-0.07 0.24,-0.2 0,-0.14 -0.08,-0.21 -0.24,-0.21l-0.28 0zm2.36 1.17l-0.29 0c-0.01,-0.03 -0.02,-0.06 -0.02,-0.1 -0.09,0.09 -0.2,0.13 -0.33,0.13 -0.11,0 -0.2,-0.03 -0.27,-0.08 -0.07,-0.06 -0.1,-0.13 -0.1,-0.23 0,-0.04 0.01,-0.08 0.02,-0.12 0.01,-0.03 0.03,-0.06 0.06,-0.08 0.03,-0.02 0.05,-0.04 0.07,-0.06 0.02,-0.01 0.06,-0.03 0.1,-0.04 0.04,-0.01 0.07,-0.02 0.1,-0.02 0.03,-0 0.06,-0.01 0.11,-0.01 0.1,-0.01 0.17,-0.03 0.2,-0.04 0.03,-0.01 0.05,-0.04 0.05,-0.08 0,-0.09 -0.06,-0.14 -0.19,-0.14 -0.07,0 -0.11,0.01 -0.14,0.04 -0.03,0.02 -0.05,0.06 -0.06,0.12l-0.27 0c0.02,-0.23 0.18,-0.35 0.48,-0.35 0.3,0 0.45,0.11 0.45,0.34l0 0.45c0,0.13 0.01,0.22 0.04,0.28zm-0.31 -0.5c-0.03,0.02 -0.1,0.04 -0.2,0.05 -0.08,0.01 -0.14,0.03 -0.16,0.05 -0.03,0.03 -0.04,0.06 -0.04,0.1 0,0.04 0.01,0.08 0.04,0.1 0.03,0.02 0.07,0.04 0.12,0.04 0.08,0 0.14,-0.02 0.18,-0.06 0.05,-0.04 0.07,-0.1 0.07,-0.17l0 -0.12zm1.58 -0.55l0 0.26c-0.04,-0.01 -0.08,-0.01 -0.11,-0.01 -0.09,0 -0.16,0.03 -0.21,0.09 -0.04,0.06 -0.07,0.14 -0.07,0.24l0 0.47 -0.28 0 0 -1.03 0.27 0 0 0.19c0.07,-0.14 0.18,-0.21 0.33,-0.21 0.01,0 0.03,0 0.06,0.01zm1.08 0.02l0 0.19 -0.21 0 0 0.49c0,0.03 0,0.05 0,0.07 0,0.01 0.01,0.03 0.01,0.04 0.01,0.01 0.02,0.02 0.04,0.03 0.02,0 0.04,0.01 0.07,0.01 0.03,0 0.06,-0 0.09,-0l0 0.22c-0.07,0.01 -0.13,0.01 -0.17,0.01 -0.12,0 -0.21,-0.02 -0.25,-0.06 -0.04,-0.04 -0.07,-0.13 -0.07,-0.25l0 -0.54 -0.17 0 0 -0.19 0.17 0 0 -0.23 0.28 0 0 0.23 0.21 0zm1.42 0.3l-0.26 0c-0.01,-0.05 -0.03,-0.09 -0.06,-0.11 -0.03,-0.02 -0.08,-0.03 -0.14,-0.03 -0.05,0 -0.09,0.01 -0.12,0.03 -0.03,0.02 -0.04,0.04 -0.04,0.07 0,0.04 0.02,0.06 0.05,0.08 0.03,0.01 0.09,0.03 0.17,0.05 0.01,0 0.03,0 0.03,0.01 0.05,0.01 0.09,0.02 0.12,0.02 0.03,0.01 0.06,0.02 0.11,0.04 0.04,0.02 0.07,0.04 0.1,0.06 0.02,0.02 0.04,0.05 0.06,0.08 0.02,0.03 0.03,0.07 0.03,0.12 0,0.11 -0.04,0.19 -0.13,0.26 -0.08,0.06 -0.2,0.09 -0.35,0.09 -0.14,0 -0.26,-0.03 -0.35,-0.09 -0.09,-0.06 -0.14,-0.15 -0.14,-0.28l0.27 0c0.01,0.11 0.08,0.17 0.22,0.17 0.06,0 0.1,-0.01 0.14,-0.03 0.03,-0.02 0.05,-0.05 0.05,-0.09 0,-0.04 -0.02,-0.07 -0.05,-0.08 -0.03,-0.02 -0.09,-0.03 -0.17,-0.05 -0.01,-0 -0.01,-0 -0.02,-0 -0.01,-0 -0.03,-0.01 -0.06,-0.01 -0.03,-0.01 -0.05,-0.01 -0.07,-0.01 -0.01,-0 -0.03,-0.01 -0.06,-0.02 -0.03,-0.01 -0.05,-0.02 -0.06,-0.02 -0.01,-0.01 -0.03,-0.02 -0.05,-0.03 -0.02,-0.01 -0.04,-0.02 -0.05,-0.04 -0.01,-0.01 -0.02,-0.03 -0.03,-0.05 -0.01,-0.02 -0.02,-0.04 -0.03,-0.06 -0,-0.02 -0.01,-0.05 -0.01,-0.07 0,-0.1 0.04,-0.18 0.12,-0.23 0.08,-0.05 0.19,-0.08 0.33,-0.08 0.13,0 0.24,0.03 0.32,0.08 0.08,0.05 0.13,0.14 0.13,0.25z"/>
   <path class="fil2" d="M0.28 -0l1.18 0c0.15,0 0.28,0.12 0.28,0.28l0 1.18c0,0.15 -0.12,0.28 -0.28,0.28l-1.18 0c-0.02,0 -0.03,-0 -0.05,-0l0.24 -0.24 -0.21 -0.21 -0.25 0.25c-0.01,-0.02 -0.01,-0.05 -0.01,-0.07l0 -1.18c0,-0.15 0.12,-0.28 0.28,-0.28zm0.27 0.57l0.07 -0.07c0.15,0.06 0.27,0.15 0.37,0.25 0.1,0.1 0.19,0.23 0.25,0.37l-0.07 0.07c-0.07,-0.14 -0.15,-0.27 -0.25,-0.37 -0.1,-0.1 -0.23,-0.19 -0.37,-0.25zm-0.1 0.1l0.07 -0.07c0.15,0.06 0.27,0.15 0.37,0.25 0.1,0.1 0.19,0.23 0.25,0.37l-0.07 0.07c-0.07,-0.14 -0.15,-0.27 -0.25,-0.37 -0.1,-0.1 -0.23,-0.19 -0.37,-0.25zm0.23 1.02l-0.13 -0.13 0.08 -0.08 -0.37 -0.37 -0.08 0.08 -0.13 -0.13 0.36 -0.36c0.15,0.06 0.27,0.15 0.37,0.25 0.1,0.1 0.19,0.23 0.25,0.37l-0.36 0.36zm-0.07 -0.55c-0.03,-0.03 -0.07,-0.03 -0.1,0 -0.03,0.03 -0.03,0.07 0,0.1 0.03,0.03 0.07,0.03 0.1,0 0.03,-0.03 0.03,-0.07 0,-0.1zm0.04 -0.68l0.09 -0.09c0.3,0.11 0.51,0.32 0.62,0.62l-0.1 0.1c-0.06,-0.14 -0.15,-0.27 -0.25,-0.37 -0.1,-0.1 -0.23,-0.19 -0.37,-0.25z"/>
   <path class="fil3" d="M2.25 -0l1.18 0c0.15,0 0.28,0.12 0.28,0.28l0 1.15 -0.17 -0.17 -0.12 -0.13c-0.05,-0.05 -0.07,-0.11 -0.06,-0.18 0.01,-0.07 0,-0.15 -0.03,-0.22 -0.03,-0.09 -0.1,-0.17 -0.22,-0.22 -0.03,-0.01 -0.06,-0.02 -0.09,-0.03 -0.02,-0 -0.06,-0.01 -0.07,-0.01l-0 0 -0 0 0 0.01c0.06,0.1 0.1,0.18 0.16,0.29 0.01,0.02 0.01,0.04 -0.01,0.06 -0.03,0.04 -0.07,0.07 -0.1,0.09 -0.01,0 -0.01,0.01 -0.02,0.01 -0.01,0 -0.01,0.01 -0.02,0.01l-0.01 0c-0.01,0.01 -0.02,0.01 -0.04,0.02 -0.01,0 -0.02,0.01 -0.03,0.01 -0.01,0 -0.02,0.01 -0.03,0.01l-0.01 0c-0.01,0 -0.03,0.01 -0.04,0.01 -0.02,0 -0.04,-0.01 -0.05,-0.03 -0.04,-0.06 -0.07,-0.13 -0.11,-0.19 -0.01,-0.03 -0.03,-0.05 -0.04,-0.08 -0,-0.01 -0.01,-0.01 -0.02,-0l-0.01 0c-0,0.01 -0.01,0.02 -0.01,0.02 -0,0.01 -0.01,0.01 -0.01,0.02 -0.01,0.02 -0.01,0.04 -0.02,0.06 -0,0.01 -0,0.01 -0,0.02 -0,0.01 -0,0.01 -0,0.02 -0,0.01 -0,0.02 -0,0.03 -0,0.01 -0,0.01 -0,0.02l-0 0.01c-0.01,0.11 0.03,0.22 0.07,0.28 0.08,0.09 0.24,0.16 0.35,0.14 0.06,-0.01 0.13,0.01 0.17,0.06l0.35 0.35c-0.02,0 -0.03,0 -0.05,0l-1.18 0c-0.15,0 -0.28,-0.12 -0.28,-0.28l0 -1.18c0,-0.15 0.12,-0.28 0.28,-0.28z"/>
   <path class="fil3" d="M0.28 1.96l1.18 0c0.15,0 0.28,0.12 0.28,0.28l0 1.18c0,0.15 -0.12,0.28 -0.28,0.28l-0.42 0 0.03 -0.02 -0.06 -0.12c0.03,-0.03 0.05,-0.05 0.08,-0.08l0.13 0.03 0.07 -0.15 -0.11 -0.07c0.01,-0.02 0.01,-0.05 0.01,-0.08l0.13 -0.03 -0.01 -0.16 -0.14 -0.01c-0.01,-0.04 -0.03,-0.09 -0.05,-0.13l0.09 -0.09 -0.11 -0.13 -0.12 0.06c-0.06,-0.05 -0.14,-0.09 -0.23,-0.12l-0.01 -0.13 -0.17 -0.02 -0.04 0.12c-0.08,0 -0.16,0.02 -0.23,0.05l-0.1 -0.09 -0.14 0.09 0.06 0.11c-0.03,0.03 -0.05,0.05 -0.08,0.09l-0.04 -0.01 0 -0.59c0,-0.15 0.12,-0.28 0.28,-0.28zm0.06 1.73l-0.06 0c-0.07,0 -0.14,-0.03 -0.19,-0.08l0.06 -0.03c0.06,0.05 0.12,0.08 0.2,0.11zm0.22 -0.96c0.25,0 0.46,0.19 0.46,0.42 0,0.08 -0.02,0.15 -0.06,0.21 0,-0.01 0,-0.02 0,-0.03 0,-0.3 -0.26,-0.55 -0.58,-0.58 0.06,-0.02 0.12,-0.03 0.18,-0.03zm0 -0.04c0.28,0 0.51,0.21 0.51,0.47 0,0.26 -0.23,0.47 -0.51,0.47 -0.28,0 -0.51,-0.21 -0.51,-0.47 0,-0.26 0.23,-0.47 0.51,-0.47z"/>
   <path class="fil2" d="M2.25 1.96l1.18 0c0.15,0 0.28,0.12 0.28,0.28l0 1.18c0,0.15 -0.12,0.28 -0.28,0.28l-1.18 0c-0.15,0 -0.28,-0.12 -0.28,-0.28l0 -1.18c0,-0.15 0.12,-0.28 0.28,-0.28zm1.14 0.36l0.01 0.01c0.02,0.02 0.02,0.05 0,0.07l-0.01 0.01 -0.02 0.02 -0.01 0.01 -0 0 -0.01 0.02 -0 0 -0.01 0.01 -0.01 0.01 -0.01 0.01 -0.01 0.01 -0.01 0.01 -0.01 0.01 -0.01 0.01 -0.02 0.02 -0.04 0.05 -0.17 0.18 -0.01 0.01 -0.08 0.08 -0.02 0.02 0.02 0.02 0 0 0 0c0.01,0.01 0.01,0.03 -0,0.04l-0.11 0.11c-0.01,0.01 -0.03,0.01 -0.04,0l-0 -0 -0.03 0.03 0.02 0.01 -0.02 0.02 -0.02 -0.01 -0.01 0.01 0.02 0.01 -0.02 0.02 -0.02 -0.01 -0.01 0.01 0.02 0.01 -0.02 0.02 -0.02 -0.01 -0.01 0.01 0.02 0.01 -0.02 0.02 -0.02 -0.01 -0.01 0.01 0.02 0.01 -0.02 0.02 -0.02 -0.01 -0.01 0.01 0.02 0.01 -0.02 0.02 -0.02 -0.01 -0.01 0.01 0.02 0.01 -0.02 0.02 -0.02 -0.01 -0.01 0.01 0.02 0.01 -0.02 0.02 -0.02 -0.01 -0.01 0.01 0.02 0.01 -0.02 0.02 -0.02 -0.01 -0.04 0.04 -0.02 -0.02 -0.03 0.03c-0.02,0.02 -0.04,0.02 -0.06,0.03l-0.01 0c-0.02,-0 -0.04,-0.01 -0.06,-0.03l-0.08 -0.08 0.02 -0.02 0.08 0.08c0.02,0.02 0.06,0.02 0.08,0l0.03 -0.03 -0.03 -0.03 -0.05 0.05 -0.1 -0.1 0.05 -0.05 -0.07 -0.07 0.02 -0.02 0 0 -0 0 -0.02 -0.01 0.02 -0.02 0.02 0.01 0.01 -0.01 -0.02 -0.01 0.02 -0.02 0.02 0.01 0.01 -0.01 -0.02 -0.01 0.02 -0.02 0.02 0.01 0.01 -0.01 -0.02 -0.01 0.02 -0.02 0.02 0.01 0.01 -0.01 -0.02 -0.01 0.02 -0.02 0.02 0.01 0.01 -0.01 -0.02 -0.01 0.02 -0.02 0.02 0.01 0.01 -0.01 -0.02 -0.01 0.02 -0.02 0.02 0.01 0.01 -0.01 -0.02 -0.01 0.02 -0.02 0.02 0.01 0.01 -0.01 0 0 -0.02 -0.01 0.02 -0.02 0.02 0.01 0 0 0.05 -0.05 -0 -0c-0.01,-0.01 -0.01,-0.03 0,-0.04l0.11 -0.11c0.01,-0.01 0.03,-0.01 0.04,-0l0 0 0 0 0.02 0.02 0.02 -0.02 0.08 -0.08 0.01 -0.01 0.23 -0.21 0.01 -0 0.01 -0.01 0.01 -0.01 0.01 -0.01 0 -0 0.01 -0 0.01 -0.01 0.02 -0.02 0.01 -0.01 0.01 -0.01 0.01 -0.01 0.01 -0.01 0.02 -0.02 0.01 -0.01c0.02,-0.02 0.05,-0.02 0.07,0l0.01 0.01 0.03 -0.03c-0,-0 -0,-0.01 0,-0.01 0,-0 0,-0.01 0,-0.01 0,-0 0,-0.01 0,-0.01l0 -0 0 -0 0 -0 0 -0 0 -0 0 -0 0 -0c0,-0 0.01,-0.01 0.01,-0.01l0 -0 0 0 0 -0 0 0c0,-0 0.01,-0.01 0.01,-0.01l0 -0 0 -0 0 -0 0 -0 0 -0 0 -0 0 -0 0 -0c0.01,-0.01 0.02,-0.01 0.02,-0.01l0.01 0c0,0 0.01,0 0.01,0l0.05 0.05c0.01,0.01 0.01,0.03 -0,0.04l-0 0 -0 0 -0 0 -0 0 -0 0 -0 0 -0 0 -0 0 -0 0 -0 0 -0 0 -0 0 0 0 -0 0 -0 0c-0,0 -0,0 -0,0.01l-0 0 0 0 -0 0 0 0 -0 0 -0 0c-0,0 -0,0 -0,0l-0 0 -0 0 -0 0 -0 0 -0 0 -0 0 -0 0 -0 0 -0 0 -0 0 -0 0 -0 0c-0,0 -0,0 -0.01,0 -0,0 -0.01,0 -0.01,0 -0.01,0 -0.01,0 -0.01,0l-0.03 0.03zm-0.08 0.19l0.01 -0.01 0 -0 -0.01 0.01 0 0z"/>
   <path class="fil4" d="M8.04 2.38c-0.11,0.04 -0.21,0.1 -0.3,0.2 -0.09,0.1 -0.14,0.21 -0.14,0.33 0,0.09 0.05,0.14 0.14,0.14 0.09,0 0.17,-0.03 0.23,-0.1 0.1,-0.1 0.15,-0.22 0.15,-0.35 0,-0.08 -0.03,-0.15 -0.08,-0.21zm-0.23 1.01c0.05,0 0.09,0.01 0.13,0.01 0.17,0 0.31,-0.04 0.43,-0.13 0.08,-0.06 0.14,-0.13 0.18,-0.21 0.05,-0.09 0.07,-0.18 0.07,-0.27 0,-0.11 -0.03,-0.21 -0.1,-0.29 -0.05,0.05 -0.11,0.14 -0.17,0.25 -0.08,0.15 -0.13,0.23 -0.14,0.26 -0.13,0.2 -0.27,0.33 -0.4,0.38zm0.73 -0.91c0.07,0.09 0.11,0.19 0.11,0.3 0,0.1 -0.02,0.19 -0.07,0.28 -0.05,0.09 -0.11,0.16 -0.19,0.22 -0.12,0.09 -0.27,0.14 -0.46,0.14 -0.02,0 -0.05,-0 -0.09,-0 -0.04,-0 -0.07,-0 -0.09,-0 -0.02,0 -0.04,0 -0.08,0.01 -0.03,0 -0.06,0.01 -0.08,0.01 -0.1,0 -0.15,-0.02 -0.15,-0.05 0,-0.02 0.02,-0.03 0.07,-0.03 0.03,0 0.07,0.01 0.13,0.02 0.06,0.01 0.1,0.02 0.13,0.02 0.1,0 0.2,-0.09 0.31,-0.28 0,-0.01 0.02,-0.03 0.05,-0.09 0.12,-0.23 0.25,-0.41 0.39,-0.54 -0.08,-0.07 -0.18,-0.1 -0.31,-0.1 -0.03,0 -0.07,0 -0.12,0.01 0.05,0.07 0.07,0.14 0.07,0.22 0,0.13 -0.05,0.25 -0.15,0.35 -0.08,0.08 -0.17,0.12 -0.26,0.12 -0.07,0 -0.12,-0.02 -0.16,-0.06 -0.04,-0.04 -0.06,-0.09 -0.06,-0.16 0,-0.12 0.05,-0.23 0.16,-0.32 0.09,-0.08 0.2,-0.14 0.33,-0.17 -0.05,-0.03 -0.11,-0.04 -0.17,-0.04 -0.1,0 -0.19,0.03 -0.27,0.09 -0.07,0.06 -0.13,0.13 -0.17,0.23 -0,0.01 -0.01,0.04 -0.03,0.11 -0.01,0.06 -0.02,0.09 -0.03,0.09 -0.01,0 -0.01,-0.01 -0.01,-0.02 0,-0.08 0.03,-0.17 0.08,-0.26 0.04,-0.08 0.1,-0.14 0.17,-0.19 0.08,-0.05 0.16,-0.07 0.24,-0.07 0.07,0 0.14,0.02 0.2,0.05 0.05,-0.01 0.09,-0.01 0.12,-0.01 0.15,0 0.27,0.04 0.36,0.12 0.09,-0.07 0.15,-0.1 0.18,-0.1 0.01,0 0.01,0 0.01,0 -0.01,0.01 -0.03,0.02 -0.07,0.05 -0.05,0.04 -0.08,0.06 -0.09,0.07z"/>
   <path id="1" class="fil4" d="M8.74 3.09c-0.01,0.01 -0.04,0.04 -0.07,0.08 -0.04,0.04 -0.06,0.07 -0.07,0.07 -0,0 -0.01,-0 -0.01,-0 0,-0.01 0.06,-0.09 0.19,-0.22l0.11 -0.01 -0.15 0.24c-0.05,0.08 -0.07,0.13 -0.07,0.14 0,0.02 0.01,0.03 0.03,0.03 0.04,0 0.1,-0.04 0.18,-0.13 0,-0 0.01,-0.01 0.01,-0.02l0.02 -0.02c0.02,-0.02 0.03,-0.03 0.04,-0.03 0.01,0 0.01,0 0.01,0.01 0,0.01 -0.02,0.04 -0.07,0.08 -0.09,0.09 -0.15,0.13 -0.19,0.13 -0.05,0 -0.08,-0.03 -0.08,-0.1 0,-0.04 0.03,-0.11 0.1,-0.22 0,-0.01 0.01,-0.02 0.02,-0.03zm0.19 -0.33c0,-0.02 0.01,-0.03 0.02,-0.05 0.01,-0.01 0.03,-0.02 0.04,-0.02 0.03,0 0.04,0.01 0.04,0.04 0,0.02 -0.01,0.03 -0.02,0.05 -0.01,0.01 -0.03,0.02 -0.04,0.02 -0.03,0 -0.04,-0.01 -0.04,-0.04z"/>
   <path id="2" class="fil4" d="M9.13 3.03c-0.02,0.02 -0.05,0.06 -0.1,0.11 -0.06,0.06 -0.09,0.09 -0.09,0.09 -0,0 -0.01,-0 -0.01,-0.01 0,-0.01 0.04,-0.06 0.12,-0.14l0.08 -0.08c0.02,-0.04 0.04,-0.06 0.06,-0.06 0.02,0 0.03,0.01 0.03,0.03 0,0.02 -0.01,0.03 -0.03,0.04 -0.03,0.01 -0.04,0.03 -0.04,0.06 0,0.02 0,0.05 0.01,0.09 0.01,0.04 0.01,0.07 0.01,0.09 0,0.03 -0.01,0.06 -0.02,0.09l0.06 -0.07c0.04,-0.04 0.05,-0.06 0.06,-0.06 0.01,0 0.01,0 0.01,0.01 0,0.01 -0.02,0.03 -0.06,0.07 -0.09,0.1 -0.17,0.14 -0.23,0.14 -0.07,0 -0.1,-0.03 -0.1,-0.08 0,-0.01 0,-0.02 0.01,-0.03 0.01,-0.01 0.02,-0.01 0.03,-0.01 0.02,0 0.03,0.01 0.03,0.03 0,0.01 -0,0.01 -0.01,0.03 -0.01,0.01 -0.01,0.02 -0.01,0.03 0,0.01 0.01,0.02 0.02,0.02 0.05,0 0.09,-0.04 0.12,-0.13 0.02,-0.07 0.04,-0.13 0.04,-0.19 0,-0.01 -0,-0.01 -0,-0.02l-0 -0.04z"/>
   <path id="3" class="fil4" d="M9.41 3.09c-0.01,0.01 -0.04,0.04 -0.07,0.08 -0.04,0.04 -0.06,0.07 -0.07,0.07 -0,0 -0.01,-0 -0.01,-0 0,-0.01 0.03,-0.05 0.1,-0.12 0.07,-0.08 0.11,-0.12 0.12,-0.14l0.07 -0.1 -0.07 0 0.01 -0.02 0.07 0 0.09 -0.15 0.1 -0.01 -0.1 0.16 0.18 0 -0.01 0.02 -0.18 0 -0.23 0.36c-0.05,0.08 -0.07,0.12 -0.07,0.14 0,0.02 0.01,0.03 0.03,0.03 0.03,0 0.09,-0.04 0.18,-0.13 0.04,-0.04 0.07,-0.07 0.07,-0.07 0.01,0 0.01,0 0.01,0.01 0,0.01 -0.02,0.04 -0.07,0.08 -0.09,0.09 -0.15,0.13 -0.19,0.13 -0.05,0 -0.08,-0.03 -0.08,-0.1 0,-0.04 0.03,-0.11 0.1,-0.22 0,-0.01 0.01,-0.02 0.02,-0.03z"/>
   <path id="4" class="fil4" d="M9.63 3.42l0.2 -0.3c0.03,-0.04 0.04,-0.07 0.04,-0.08 0,-0.01 -0.01,-0.02 -0.02,-0.02 -0.03,0 -0.09,0.05 -0.18,0.14 -0.01,0.01 -0.02,0.03 -0.04,0.04 -0.02,0.02 -0.03,0.03 -0.03,0.03 -0,0 -0.01,-0 -0.01,-0.01 0,-0.01 0.01,-0.02 0.03,-0.05l0.05 -0.05c0.08,-0.09 0.14,-0.13 0.18,-0.13 0.04,0 0.06,0.02 0.06,0.07 0,0.04 -0.02,0.11 -0.07,0.19l0 -0c0.04,-0.04 0.08,-0.08 0.13,-0.12 0.02,-0.04 0.03,-0.07 0.04,-0.09 0.02,-0.03 0.05,-0.04 0.08,-0.04 0.02,0 0.03,0.01 0.03,0.02 0,0.02 -0.03,0.05 -0.09,0.09l-0.02 0.02c-0.04,0.03 -0.06,0.07 -0.06,0.11 0,0.03 0.01,0.04 0.04,0.04 0.03,0 0.07,-0.02 0.12,-0.07 0.01,0 0.01,0 0.01,0.01 0,0.02 -0.02,0.04 -0.05,0.06 -0.03,0.02 -0.05,0.03 -0.07,0.03 -0.04,0 -0.06,-0.02 -0.06,-0.06 0,-0.01 0.01,-0.04 0.02,-0.07 -0.06,0.05 -0.13,0.13 -0.22,0.25l-0.11 0.01z"/>
   <path id="5" class="fil4" d="M10.24 3.09c-0.01,0.01 -0.04,0.04 -0.07,0.08 -0.04,0.04 -0.06,0.07 -0.07,0.07 -0,0 -0.01,-0 -0.01,-0 0,-0.01 0.06,-0.09 0.19,-0.22l0.11 -0.01 -0.15 0.24c-0.05,0.08 -0.07,0.13 -0.07,0.14 0,0.02 0.01,0.03 0.03,0.03 0.04,0 0.1,-0.04 0.18,-0.13 0,-0 0.01,-0.01 0.01,-0.02l0.02 -0.02c0.02,-0.02 0.03,-0.03 0.04,-0.03 0.01,0 0.01,0 0.01,0.01 0,0.01 -0.02,0.04 -0.07,0.08 -0.09,0.09 -0.15,0.13 -0.19,0.13 -0.05,0 -0.08,-0.03 -0.08,-0.1 0,-0.04 0.03,-0.11 0.1,-0.22 0,-0.01 0.01,-0.02 0.02,-0.03zm0.19 -0.33c0,-0.02 0.01,-0.03 0.02,-0.05 0.01,-0.01 0.03,-0.02 0.04,-0.02 0.03,0 0.04,0.01 0.04,0.04 0,0.02 -0.01,0.03 -0.02,0.05 -0.01,0.01 -0.03,0.02 -0.04,0.02 -0.03,0 -0.04,-0.01 -0.04,-0.04z"/>
   <path id="6" class="fil4" d="M11.01 2.49l-0.38 0.64c-0.08,0.14 -0.12,0.22 -0.12,0.24 0,0.02 0.02,0.03 0.05,0.03 0.06,0 0.11,-0.03 0.16,-0.08 0.04,-0.05 0.06,-0.11 0.07,-0.17 0,-0.01 0,-0.04 0.01,-0.07 0.01,-0.06 0.02,-0.09 0.05,-0.09 0.03,0 0.04,0.02 0.04,0.06 0,0.07 -0.03,0.14 -0.1,0.23 0,0 0.01,0 0.01,0 0.01,0 0.01,0 0.01,0 0.04,0 0.08,-0.02 0.12,-0.07l0.02 -0.02c0,-0 0.01,-0 0.01,-0 0,0 0.01,0 0.01,0.01 0,0 -0,0.01 -0,0.01l-0.02 0.02c-0.04,0.05 -0.1,0.08 -0.15,0.08 -0.01,0 -0.02,-0 -0.04,-0 -0.08,0.08 -0.15,0.12 -0.23,0.12 -0.06,0 -0.09,-0.03 -0.09,-0.1 0,-0.04 0.02,-0.09 0.06,-0.17l0 -0 -0.05 0.05c-0.01,0.01 -0.02,0.02 -0.02,0.02 -0,0 -0.01,-0 -0.01,-0.01 0,-0 0.01,-0.02 0.03,-0.04 0.09,-0.1 0.17,-0.22 0.24,-0.35l0.19 -0.33 0.11 -0.01z"/>
   <path id="7" class="fil4" d="M11.33 3.29c-0.03,0.04 -0.04,0.07 -0.04,0.09 0,0.02 0.01,0.03 0.02,0.03 0.03,0 0.08,-0.04 0.16,-0.13 0,-0 0.01,-0.01 0.04,-0.04 0.02,-0.02 0.03,-0.03 0.03,-0.03 0.01,0 0.01,0 0.01,0.01 0,0.01 -0.02,0.03 -0.06,0.07 -0.09,0.1 -0.15,0.14 -0.19,0.14 -0.05,0 -0.07,-0.03 -0.07,-0.1 0,-0.01 0,-0.02 0.01,-0.04 -0.08,0.1 -0.15,0.15 -0.2,0.15 -0.06,0 -0.08,-0.03 -0.08,-0.1 0,-0.04 0.04,-0.12 0.11,-0.23l0.01 -0.02c-0.09,0.09 -0.13,0.14 -0.14,0.14 -0,0 -0.01,-0 -0.01,-0 0,-0.01 0.06,-0.09 0.19,-0.22l0.11 -0.01 -0.16 0.25c-0.04,0.07 -0.06,0.11 -0.06,0.13 0,0.02 0.01,0.03 0.02,0.03 0.09,0 0.21,-0.13 0.37,-0.4l0.1 -0.01 -0.18 0.29z"/>
   <path id="8" class="fil4" d="M11.68 3.09c-0.01,0.01 -0.04,0.04 -0.07,0.08 -0.04,0.04 -0.06,0.07 -0.07,0.07 -0,0 -0.01,-0 -0.01,-0 0,-0.01 0.03,-0.05 0.1,-0.12 0.07,-0.08 0.11,-0.12 0.12,-0.14l0.07 -0.1 -0.07 0 0.01 -0.02 0.07 0 0.09 -0.15 0.1 -0.01 -0.1 0.16 0.18 0 -0.01 0.02 -0.18 0 -0.23 0.36c-0.05,0.08 -0.07,0.12 -0.07,0.14 0,0.02 0.01,0.03 0.03,0.03 0.03,0 0.09,-0.04 0.18,-0.13 0.04,-0.04 0.07,-0.07 0.07,-0.07 0.01,0 0.01,0 0.01,0.01 0,0.01 -0.02,0.04 -0.07,0.08 -0.09,0.09 -0.15,0.13 -0.19,0.13 -0.05,0 -0.08,-0.03 -0.08,-0.1 0,-0.04 0.03,-0.11 0.1,-0.22 0,-0.01 0.01,-0.02 0.02,-0.03z"/>
   <path id="9" class="fil4" d="M12.02 3.09c-0.01,0.01 -0.04,0.04 -0.07,0.08 -0.04,0.04 -0.06,0.07 -0.07,0.07 -0,0 -0.01,-0 -0.01,-0 0,-0.01 0.06,-0.09 0.19,-0.22l0.11 -0.01 -0.15 0.24c-0.05,0.08 -0.07,0.13 -0.07,0.14 0,0.02 0.01,0.03 0.03,0.03 0.04,0 0.1,-0.04 0.18,-0.13 0,-0 0.01,-0.01 0.01,-0.02l0.02 -0.02c0.02,-0.02 0.03,-0.03 0.04,-0.03 0.01,0 0.01,0 0.01,0.01 0,0.01 -0.02,0.04 -0.07,0.08 -0.09,0.09 -0.15,0.13 -0.19,0.13 -0.05,0 -0.08,-0.03 -0.08,-0.1 0,-0.04 0.03,-0.11 0.1,-0.22 0,-0.01 0.01,-0.02 0.02,-0.03zm0.19 -0.33c0,-0.02 0.01,-0.03 0.02,-0.05 0.01,-0.01 0.03,-0.02 0.04,-0.02 0.03,0 0.04,0.01 0.04,0.04 0,0.02 -0.01,0.03 -0.02,0.05 -0.01,0.01 -0.03,0.02 -0.04,0.02 -0.03,0 -0.04,-0.01 -0.04,-0.04z"/>
   <path id="10" class="fil4" d="M12.3 3.35c0,0.04 0.02,0.05 0.05,0.05 0.04,0 0.09,-0.03 0.14,-0.09 0.07,-0.08 0.11,-0.15 0.11,-0.22 0,-0.05 -0.02,-0.08 -0.06,-0.08 -0.05,0 -0.1,0.04 -0.16,0.13 -0.05,0.08 -0.08,0.15 -0.08,0.2zm0.26 -0.07c0,0 0.01,0 0.01,0 0.01,0 0.01,0 0.01,0 0.05,0 0.09,-0.02 0.13,-0.07l0.02 -0.02c0,-0 0.01,-0 0.01,-0 0,0 0.01,0 0.01,0.01 0,0 -0,0.01 -0,0.01l-0.02 0.02c-0.04,0.05 -0.1,0.08 -0.16,0.08 -0.01,0 -0.02,-0 -0.03,-0 -0.07,0.08 -0.14,0.12 -0.2,0.12 -0.07,0 -0.1,-0.05 -0.1,-0.16 0,-0.02 0,-0.04 0.01,-0.07 -0.02,0.02 -0.03,0.03 -0.03,0.03 -0,0 -0.01,-0 -0.01,-0.01 0,-0.01 0.02,-0.03 0.06,-0.08 0.1,-0.11 0.19,-0.16 0.27,-0.16 0.07,0 0.1,0.04 0.1,0.11 0,0.05 -0.03,0.11 -0.08,0.18z"/>
   <path id="11" class="fil4" d="M12.74 3.42l0.2 -0.3c0,-0 0,-0 0.01,-0.01 0.03,-0.04 0.04,-0.06 0.04,-0.08 0,-0.01 -0.01,-0.02 -0.02,-0.02 -0.03,0 -0.09,0.05 -0.18,0.14 -0.01,0.01 -0.02,0.03 -0.04,0.04 -0.02,0.02 -0.03,0.03 -0.03,0.03 -0,0 -0.01,-0 -0.01,-0.01 0,-0.01 0.01,-0.02 0.03,-0.05l0.05 -0.05c0.08,-0.09 0.14,-0.13 0.18,-0.13 0.04,0 0.06,0.02 0.06,0.07 0,0.04 -0.02,0.1 -0.06,0.16 0.14,-0.16 0.23,-0.24 0.28,-0.24 0.04,0 0.06,0.02 0.06,0.07 0,0.04 -0.03,0.09 -0.08,0.16 -0,0 -0.01,0.01 -0.02,0.03 -0.05,0.07 -0.07,0.11 -0.07,0.13 0,0.02 0.01,0.03 0.02,0.03 0.02,0 0.08,-0.04 0.16,-0.13l0.07 -0.07c0.01,0 0.01,0 0.01,0.01 0,0.01 -0.02,0.04 -0.07,0.08l-0.01 0.01c-0.09,0.09 -0.14,0.13 -0.17,0.13 -0.05,0 -0.07,-0.04 -0.07,-0.11 0,-0.04 0.03,-0.11 0.1,-0.19 0,-0.01 0.01,-0.01 0.02,-0.03 0.03,-0.04 0.04,-0.06 0.04,-0.07 0,-0.01 -0.01,-0.02 -0.02,-0.02 -0.05,0 -0.18,0.13 -0.39,0.4l-0.11 0.01z"/>
  </g>
 </g>
</svg>
