<?xml version="1.0" standalone="no"?>
<!DOCTYPE svg PUBLIC "-//W3C//DTD SVG 1.0//EN" "http://www.w3.org/TR/2001/REC-SVG-20010904/DTD/svg10.dtd">
<svg xmlns="http://www.w3.org/2000/svg" xmlns:xlink="http://www.w3.org/1999/xlink" id="body_1" width="49" height="37">

<g transform="matrix(0.07500051 0 0 0.07500051 6.000001 -0)">
    <path d="M352.73 450.96C 355.75958 460.7361 350.67343 471.18417 341.11002 474.83C 305.31003 488.53998 271.82 493.33 228.24002 493.33C 110.58 493.33 7.1 409 7.1 270.06C 7.1 125.46 112 0 272.2 0C 396.93002 0 486.24 85.76 486.24 204.84C 486.24 308.33 428.12 373.53998 351.58 373.53998C 318.25 373.53998 294.15997 356.53998 290.62 318.95996L290.62 318.95996L289.19998 318.95996C 267.22998 355.10995 235.33998 373.53998 197.76999 373.53998C 151.68999 373.53998 118.38999 339.52 118.38999 281.39996C 118.38999 194.91995 182.15999 116.24997 284.22998 116.24997C 302.93 116.24997 323.12997 119.04997 340.13998 123.41997C 356.5502 127.63487 367.02847 143.67986 364.28998 160.39996L364.28998 160.39996L347.31998 265.09998C 340.24 306.90997 345.19998 326.05 365.03998 326.75998C 395.50998 327.46997 433.8 288.49 433.8 206.96997C 433.8 114.81997 374.25998 43.239975 264.38998 43.239975C 155.94998 43.239975 60.95999 128.28998 60.95999 263.68C 60.95999 382.05 136.79999 449.38 242.40999 449.38C 269.9 449.38 298.61 444.88 323.25998 436.18C 329.1229 434.10483 335.5781 434.50687 341.13818 437.29352C 346.69827 440.08017 350.88367 445.01105 352.72998 450.94998L352.72998 450.94998L352.73 450.96zM293.95 181.35999C 294.48502 177.73206 292.05536 174.33052 288.45 173.65999C 283.31854 172.70605 278.10944 172.23068 272.89 172.23999C 226.11002 172.23999 189.27002 218.31999 189.27002 272.88998C 189.27002 299.83 201.31001 316.84 224.69002 316.84C 250.92001 316.84 278.57 283.53 284.96002 242.41L284.96002 242.41L293.96002 181.36z" stroke="none" fill="#000000" fill-rule="nonzero" />
</g>
</svg>