<svg viewBox="0 0 32 32" xml:space="preserve" xmlns="http://www.w3.org/2000/svg"><g fill="#414753"><path d="M30 2v28H2V2h28m1-1H1v30h30V1z"/><path d="M30 2v28H2V2h28m1-1H1v30h30V1z"/></g><path d="M15.37 16.22c-.45-.41-.95-1-1.16-1.5-.04-.07-.1-.24 0-.37.2-.26.23-.28.44-.53.15-.18.27-.34.22-.5l-.74-1.93c-.07-.13-.27-.15-.5-.16-.2 0-.41 0-.56.03-.33.12-1.01 1-1.1 1.65-.18 1.4 1.1 3.28 2.37 4.44 1.27 1.17 3.24 2.28 4.63 1.96.64-.14 1.47-.89 1.53-1.24.04-.14.02-.36-.01-.56-.02-.23-.07-.4-.2-.46l-1.69-.78c-.15-.08-.3-.02-.44.17l-.48.6c-.12.16-.2.26-.33.27-.15.04-.35-.05-.38-.05a5.34 5.34 0 0 1-1.6-1.04zM9.8 22.16l.96-2.43a6.99 6.99 0 0 1 5.3-11.58 7 7 0 1 1-4.13 12.65L9.8 22.16zm-1.17-2.38-1.32 5.29 4.72-2.15a8.72 8.72 0 0 0 12.78-7.77 8.75 8.75 0 1 0-16.18 4.63z" fill="#414753"/></svg>