<svg xmlns="http://www.w3.org/2000/svg" viewBox="0 0 63 63" xml:space="preserve"><path d="M53.9 55.35H10.15C5.05 55.35 0 51.62 0 46.07v-23.4a9.7 9.7 0 0 1 9.66-9.63c.83 0 1.4.67 1.4 1.5s-.52 1.5-1.35 1.5A6.7 6.7 0 0 0 3 22.68v23.39c0 3.7 3.57 6.28 7.16 6.28H53.9c3.5 0 6.11-2.4 6.11-6.28v-23.4a6.44 6.44 0 0 0-6.37-6.63c-.83 0-1.6-.67-1.6-1.5s.82-1.5 1.65-1.5c5.22 0 9.32 4.14 9.32 9.64v23.39c0 5.55-3.92 9.28-9.1 9.28z"/><path d="M32 37.4a9.6 9.6 0 0 1-4.67-1.2L2.76 20.9a1.5 1.5 0 0 1 1.59-2.55l24.5 15.26a6.65 6.65 0 0 0 6.46-.07l23.9-15.18a1.5 1.5 0 1 1 1.6 2.53L36.86 36.11A9.79 9.79 0 0 1 32 37.4z"/><path d="m34.08 13.48.27-1.19h2.83L35.55 20c-.1.5-.15.81-.15.97 0 .17.04.3.12.39.08.1.18.14.3.14.38 0 .88-.25 1.5-.76a6.58 6.58 0 0 0 2.28-4.91c0-.86-.17-1.67-.5-2.43a5.65 5.65 0 0 0-1.4-1.98c-.62-.56-1.38-1-2.29-1.3a9.34 9.34 0 0 0-3.07-.48c-1.17 0-2.24.15-3.22.45-.97.31-1.83.75-2.56 1.32a7.35 7.35 0 0 0-1.85 2.1 9.15 9.15 0 0 0-1 2.43c-.23.9-.34 1.8-.34 2.72 0 1.23.24 2.36.73 3.38a6.85 6.85 0 0 0 2.14 2.57 8.73 8.73 0 0 0 3.39 1.47c1.32.29 2.82.35 4.49.18 1.32-.16 2.44-.46 3.37-.9a6.63 6.63 0 0 0 2.33-1.88h2.29a7.57 7.57 0 0 1-1.46 2.06c-.6.6-1.3 1.1-2.1 1.52-.8.4-1.7.72-2.7.94-.99.21-2.07.32-3.25.32-1.76 0-3.34-.23-4.76-.7a9.8 9.8 0 0 1-3.56-2 8.48 8.48 0 0 1-2.18-3.1 11.8 11.8 0 0 1 .02-8.28 9.99 9.99 0 0 1 2.2-3.46c.95-.98 2.12-1.74 3.5-2.3 1.38-.54 2.9-.82 4.56-.82 1.36 0 2.6.2 3.74.6 1.14.4 2.1.97 2.92 1.71a7.44 7.44 0 0 1 1.85 2.65 8.7 8.7 0 0 1 .12 6.2 8 8 0 0 1-1.47 2.48 7.16 7.16 0 0 1-2.26 1.74c-.87.43-1.8.64-2.8.64-.59 0-1.04-.1-1.36-.3-.32-.2-.54-.5-.64-.94a4.16 4.16 0 0 1-4.5.94 3.92 3.92 0 0 1-1.85-1.57 4.99 4.99 0 0 1-.7-2.73c0-1.12.24-2.23.72-3.32a6.87 6.87 0 0 1 2.07-2.67 4.8 4.8 0 0 1 3.02-1.05c1.29 0 2.23.49 2.84 1.46zm-5.88 5.57c0 .86.18 1.52.54 1.98.35.46.82.68 1.4.68a2.4 2.4 0 0 0 1.78-.8 5.2 5.2 0 0 0 1.17-2.04c.26-.82.4-1.6.4-2.38 0-.38-.05-.72-.14-1.02a2.4 2.4 0 0 0-.4-.8 1.73 1.73 0 0 0-1.47-.7c-.63 0-1.2.24-1.7.73a4.8 4.8 0 0 0-1.17 1.92c-.27.78-.41 1.6-.41 2.43z"/></svg>