<svg width="67" height="52" viewBox="0 0 67 52" fill="none" xmlns="http://www.w3.org/2000/svg"><path d="M54.68 39.48h4.17c.54 0 .97-.43.97-.96V5.14a.97.97 0 0 0-.97-.97H7.23a.97.97 0 0 0-.97.97v33.38c0 .53.43.96.97.96h42.92a.97.97 0 1 0 0-1.93H8.2V6.1h49.7v31.44h-3.2a.97.97 0 1 0 0 1.93Z" fill="#AE7C78"/><path d="M65.11 41.72H64V3.58C64 1.6 62.4 0 60.42 0H15.54a.97.97 0 0 0 0 1.94h44.88c.9 0 1.64.73 1.64 1.64v38.14H4.02V3.58c0-.9.74-1.64 1.64-1.64h5.35a.97.97 0 1 0 0-1.94H5.66A3.58 3.58 0 0 0 2.1 3.58v38.14H.97a.97.97 0 0 0-.97.97v5.21A4.1 4.1 0 0 0 4.1 52h4.75a.97.97 0 1 0 0-1.94H4.1c-1.2 0-2.16-.97-2.16-2.16v-4.24H25.8l.52 1.66a3.56 3.56 0 0 0 3.41 2.5h6.6c1.57 0 2.94-1 3.41-2.5l.52-1.66h23.87v4.24c0 1.2-.96 2.16-2.16 2.16h-48.6a.97.97 0 1 0 0 1.94h48.6a4.1 4.1 0 0 0 4.1-4.1v-5.2a.97.97 0 0 0-.97-.97Zm-27.2 3.02a1.63 1.63 0 0 1-1.57 1.15h-6.6c-.72 0-1.35-.46-1.56-1.15l-.34-1.08h10.4l-.34 1.08Z" fill="#AE7C78"/><path d="M24.3 23.32c.47 0 .86-.33.95-.78l1.18-5.87a.97.97 0 0 0-.95-1.16h-7.43a.97.97 0 1 0 0 1.94h6.25l-.79 3.93H16l-1.3-7.03a.97.97 0 0 0-.95-.8H11.4a.97.97 0 1 0 0 1.94h1.54l1.27 6.95v4.08c0 .54.43.97.97.97h.04a1.3 1.3 0 0 0 1.26 1.64 1.3 1.3 0 0 0 1.31-1.32c0-.11-.01-.22-.04-.32h2.17l-.02.06a1.3 1.3 0 1 0 2.55.54 1.31 1.31 0 0 0 0-.6h.3a.97.97 0 1 0 0-1.94h-6.6v-2.23h8.16ZM37.4 11.4a.97.97 0 0 0-.97-.97h-4.17a.97.97 0 0 0-.97.97v4.17c0 .53.43.97.97.97h4.17c.53 0 .97-.44.97-.97V11.4Zm-1.94 3.2h-2.23v-2.23h2.23v2.23Zm5.14 1.94h8.87a.97.97 0 1 0 0-1.94H40.6a.97.97 0 1 0 0 1.94Zm0-4.17h14.08a.97.97 0 0 0 0-1.94H40.6a.97.97 0 1 0 0 1.94Zm-3.2 7.37a.97.97 0 0 0-.97-.97h-4.17a.97.97 0 0 0-.97.97v4.17c0 .54.43.97.97.97h4.17c.53 0 .97-.43.97-.97v-4.17Zm-1.94 3.2h-2.23v-2.23h2.23v2.24Zm5.14 1.94h8.87a.97.97 0 1 0 0-1.93H40.6a.97.97 0 1 0 0 1.93Zm0-4.17h14.08a.97.97 0 1 0 0-1.94H40.6a.97.97 0 1 0 0 1.94Zm-4.17 6.41h-4.17a.97.97 0 0 0-.97.97v4.17c0 .53.43.97.97.97h4.17c.53 0 .97-.44.97-.97v-4.17a.97.97 0 0 0-.97-.97Zm-.97 4.17h-2.23v-2.24h2.23v2.24Zm5.14 0a.97.97 0 1 0 0 1.94h8.87a.97.97 0 1 0 0-1.94H40.6Zm15.05-3.2a.97.97 0 0 0-.97-.97H40.6a.97.97 0 1 0 0 1.93h14.08c.54 0 .97-.43.97-.96Z" fill="#AE7C78"/></svg>