<svg width="70" height="52" viewBox="0 0 70 52" fill="none" xmlns="http://www.w3.org/2000/svg"><path d="M22 14.73H10.24a2.57 2.57 0 0 0-2.57 2.57v9.29a2.57 2.57 0 0 0 2.57 2.57H22a2.57 2.57 0 0 0 2.57-2.57V17.3A2.57 2.57 0 0 0 22 14.73Zm.52 2.57v3.62h-5.37v-4.14H22c.29 0 .52.24.52.52Zm-12.8 9.3v-9.3c0-.28.24-.52.52-.52h4.86v10.33h-4.86a.52.52 0 0 1-.52-.52Zm12.28.5h-4.85v-4.14h5.37v3.62c0 .28-.23.52-.52.52ZM7.67 41c0 .56.46 1.02 1.03 1.02h30.14a1.02 1.02 0 1 0 0-2.05H8.7c-.57 0-1.03.46-1.03 1.02Zm1.03 2.87a1.02 1.02 0 1 0 0 2.05h15.07a1.02 1.02 0 1 0 0-2.05H8.7Zm18.19-7.77v-2.47a1.02 1.02 0 1 0-2.05 0v2.47a1.02 1.02 0 1 0 2.05 0Zm4.68 0v-2.47a1.02 1.02 0 1 0-2.05 0v2.47a1.02 1.02 0 1 0 2.05 0Zm4.68 0v-2.47a1.02 1.02 0 1 0-2.05 0v2.47a1.02 1.02 0 1 0 2.05 0Zm4.68 0v-2.47a1.02 1.02 0 1 0-2.04 0v2.47a1.02 1.02 0 1 0 2.04 0Zm5.76-2.47v2.47a1.02 1.02 0 0 0 2.05 0v-2.47a1.02 1.02 0 1 0-2.05 0Zm4.68 0v2.47a1.02 1.02 0 0 0 2.05 0v-2.47a1.02 1.02 0 1 0-2.05 0Zm4.68 0v2.47a1.02 1.02 0 0 0 2.05 0v-2.47a1.02 1.02 0 1 0-2.05 0ZM8.7 37.13c.56 0 1.02-.46 1.02-1.03v-2.47a1.02 1.02 0 1 0-2.05 0v2.47c0 .57.46 1.03 1.03 1.03Zm5.7-1.03v-2.47a1.02 1.02 0 1 0-2.04 0v2.47a1.02 1.02 0 0 0 2.04 0Zm4.69 0v-2.47a1.02 1.02 0 1 0-2.05 0v2.47a1.02 1.02 0 0 0 2.05 0Z" fill="#AE7C78"/><path d="M69.93 10.4a10.42 10.42 0 0 0-20.66-1.75h-26.5a1.02 1.02 0 1 0 0 2.05h26.35a10.43 10.43 0 0 0 10.4 10.11c1.5 0 2.95-.33 4.2-.88v17.22a1.02 1.02 0 1 0 2.06 0V18.72a10.4 10.4 0 0 0 4.15-8.31Zm-10.4-8.35a8.37 8.37 0 0 1 0 16.71 8.36 8.36 0 0 1 0-16.71Z" fill="#AE7C78"/><path d="M56.69 14.35c.34.56 1.13.65 1.6.19L64.9 7.9a1.02 1.02 0 0 0-1.45-1.45l-5.7 5.71-2.22-3.58a1.02 1.02 0 0 0-1.74 1.08l2.89 4.68Zm8.06 26.56c-.56 0-1.02.46-1.02 1.02v4.23a3.8 3.8 0 0 1-3.8 3.8H5.84a3.8 3.8 0 0 1-3.8-3.8V14.49c0-2.09 1.71-3.8 3.8-3.8h12.14a1.02 1.02 0 1 0 0-2.04H5.84A5.85 5.85 0 0 0 0 14.5v31.67A5.85 5.85 0 0 0 5.84 52h54.1a5.85 5.85 0 0 0 5.84-5.84v-4.23c0-.56-.46-1.02-1.03-1.02Z" fill="#AE7C78"/><path d="M59.34 27.58v-3.03c0-.86-.7-1.57-1.57-1.57H47.3c-.87 0-1.58.7-1.58 1.57v3.03c0 .87.7 1.58 1.58 1.58h10.46c.86 0 1.57-.7 1.57-1.58Zm-2.05-.47h-9.51v-2.08h9.51v2.08Z" fill="#AE7C78"/></svg>