<?xml version="1.0" standalone="no"?>
<!DOCTYPE svg PUBLIC "-//W3C//DTD SVG 1.0//EN" "http://www.w3.org/TR/2001/REC-SVG-20010904/DTD/svg10.dtd">
<svg xmlns="http://www.w3.org/2000/svg" xmlns:xlink="http://www.w3.org/1999/xlink" id="body_1" width="49" height="49">

<g transform="matrix(3.0625 0 0 3.0625 0 0)">
    <path d="M11 1C 11.552285 1 12 1.4477153 12 2L12 2L12 14C 12 14.552285 11.552285 15 11 15L11 15L5 15C 4.4477153 15 4 14.552285 4 14L4 14L4 2C 4 1.4477153 4.4477153 1 5 1L5 1L11 1zM5 0C 3.8954306 0 3 0.89543045 3 2L3 2L3 14C 3 15.104569 3.8954306 16 5 16L5 16L11 16C 12.104569 16 13 15.104569 13 14L13 14L13 2C 13 0.89543045 12.104569 0 11 0L11 0L5 0z" stroke="none" fill="#000000" fill-rule="nonzero" fill-opacity="0" />
    <path d="M8 14C 8.357265 14 8.687392 13.8094015 8.866026 13.5C 9.044659 13.1905985 9.044659 12.809401 8.866025 12.5C 8.687392 12.1905985 8.357265 12 8 12C 7.4477153 12 7 12.447716 7 13C 7 13.552285 7.4477153 14 8 14z" stroke="none" fill="#000000" fill-rule="nonzero" fill-opacity="0" />
</g>
</svg>