<?xml version="1.0" standalone="no"?>
<!DOCTYPE svg PUBLIC "-//W3C//DTD SVG 1.0//EN" "http://www.w3.org/TR/2001/REC-SVG-20010904/DTD/svg10.dtd">
<svg xmlns="http://www.w3.org/2000/svg" xmlns:xlink="http://www.w3.org/1999/xlink" id="body_1" width="49" height="37">

<g transform="matrix(0.075510204 0 0 0.075510204 6.0000014 -0)">
    <path d="M245 0C 156.46 0 84.42 71.99 84.42 160.47C 84.42 245.51001 230.34999 475.62 236.56999 485.37C 238.40587 488.25302 241.58705 489.9987 245.00499 489.9987C 248.42293 489.9987 251.60411 488.25302 253.43999 485.37C 259.63998 475.62 405.58 245.51 405.58 160.47C 405.58 72 333.54 0 245 0zM245 461.13C 231.8 439.76 205 395.54 178.45 346.53C 130.01999 257.13 104.43 192.78 104.43 160.47C 104.42 83.02 167.49 20 245 20C 322.52 20 385.58002 83.020004 385.58002 160.47C 385.58002 192.78 359.98 257.12 311.55002 346.54C 285.01 395.54 258.21002 439.76 245.00002 461.13z" stroke="none" fill="#000000" fill-rule="nonzero" />
    <path d="M245 76.07C 203.11 76.07 169.04001 109.22 169.04001 149.97C 169.04001 190.71 203.12001 223.86 245 223.86C 286.88 223.86 320.96 190.70999 320.96 149.95999C 320.96 109.219986 286.88 76.06999 245 76.06999L245 76.06999L245 76.07zM245 203.85C 214.14 203.85 189.04001 179.68001 189.04001 149.96C 189.04001 120.25001 214.14001 96.07001 245 96.07001C 275.86 96.07001 300.96 120.25001 300.96 149.97C 300.96 179.68 275.86 203.85 245 203.85z" stroke="none" fill="#000000" fill-rule="nonzero" />
</g>
</svg>