<svg xmlns="http://www.w3.org/2000/svg">
  <symbol viewBox="0 0 39 37" id="icon-house">
  <path d="M15.4 33.22h8.35V21.06H15.4v12.16Zm6.84-1.48h-5.32v-9.2h5.27v9.2h.05Z" fill="#d73a31"/><path d="m37.9 20.04 1.1-1.07-5.17-5.03V.2h-7.2v6.72L19.47 0 0 19.03l1.1 1.06 4.07-3.96v19.23H3.13v1.47H36.5v-1.47h-2.66V16.08l4.07 3.96ZM28.14 1.73h4.13v10.73l-4.13-4.02V1.73Zm4.18 33.57H6.73V14.6L19.47 2.14l12.8 12.46v20.7h.05Z" fill="#d73a31"/><path d="M15.56 13.84a4.01 4.01 0 0 0 4.02 3.96 4.03 4.03 0 0 0 4.07-3.96 3.98 3.98 0 0 0-4.07-3.92 3.94 3.94 0 0 0-4.02 3.92Zm4.02-2.55a2.59 2.59 0 0 1 2.6 2.55 2.58 2.58 0 0 1-2.6 2.54 2.59 2.59 0 0 1-2.61-2.54c0-1.38 1.2-2.55 2.6-2.55Zm-9.19 9.77H8.82v1.99h1.57v-1.99Zm3.08 0H11.9v1.99h1.57v-1.99Zm-3.08 3.05H8.82v1.99h1.57v-2Zm3.08 0H11.9v1.99h1.57v-2Zm13.57-3.05h-1.56v1.99h1.56v-1.99Zm3.14 0H28.6v1.99h1.57v-1.99Zm-3.14 3.05h-1.56v1.99h1.56v-2Zm3.14 0H28.6v1.99h1.57v-2Z" fill="#d73a31"/>
  </symbol>
  <symbol viewBox="0 0 40 35" id="icon-food">
    <path d="M37.74 23.3H2.26A2.23 2.23 0 0 0 0 25.48v1.77c0 1.17 1 2.13 2.26 2.13h.52v.5a5.12 5.12 0 0 0 5.2 5.02h24.04c2.89 0 5.2-2.28 5.2-5.01v-.51h.52c1.21 0 2.26-.96 2.26-2.18v-1.77c0-1.12-1-2.13-2.26-2.13Zm-2.04 6.59a3.57 3.57 0 0 1-3.63 3.49H7.93c-2 0-3.63-1.57-3.63-3.5v-.5h31.4v.5Zm2.73-2.69c0 .36-.32.66-.69.66H2.26a.68.68 0 0 1-.69-.66v-1.77c0-.3.32-.61.69-.61H37.8c.36 0 .68.3.68.66v1.72h-.05Zm-29.93-8 2.84 2.02 2.89-2.02 2.88 2.02L20 19.2l2.83 2.02 2.9-2.02 2.88 2.02 2.89-2.02 2.88 2.02 3.31-2.38-.9-1.21-2.4 1.67-2.9-2.03-2.88 2.03-2.89-2.03-2.89 2.03L20 17.27l-2.89 2.03-2.88-2.03-2.9 2.03-2.83-2.03-2.88 2.03-2.42-1.67-.94 1.21 3.36 2.38L8.5 19.2Zm28.72-3.45c0-.3.05-1.31 0-1.52C36.85 6.33 29.29 0 20 0 10.7 0 3.1 6.33 2.73 14.23v1.52h34.49ZM20 1.52c8.4 0 15.33 5.67 15.64 12.71H4.3C4.67 7.2 11.6 1.52 20 1.52Z" fill="#d73a31"/><path d="M20 8.61c.58 0 1.05-.45 1.05-1.01S20.58 6.58 20 6.58c-.58 0-1.05.46-1.05 1.02s.47 1 1.05 1Zm-4.2-2.48c.58 0 1.05-.45 1.05-1.01S16.38 4.1 15.8 4.1c-.58 0-1.05.46-1.05 1.02s.47 1 1.05 1Zm8.4 0c.58 0 1.05-.45 1.05-1.01S24.78 4.1 24.2 4.1c-.58 0-1.05.46-1.05 1.02s.47 1 1.05 1Z" fill="#d73a31"/>
  </symbol>
  <!-- <symbol viewBox="0 0 32 38" id="icon-souvenir">
    <path d="M30.58 11.2h-12.4c6.91-3.44 7.47-5.62 7.22-6.83-.56-1.98-2.85-3.5-4.98-2.69-2.8 1.07-3.56 5.22-4.32 8.2-.96-3.03-1.88-6.88-4.06-8.85A3.7 3.7 0 0 0 9.14 0c-2.03.2-4.92 2.69-3.7 5.47 1.11 2.69 4.82 4.4 7.3 5.78H1.43c-.81 0-1.42.65-1.42 1.41v5.68c0 .8.66 1.42 1.42 1.42h.15V38h28.96V19.77h.05c.81 0 1.42-.66 1.42-1.42v-5.68c0-.8-.66-1.46-1.42-1.46Zm-9.35-8.25c1.07-.15 2.5.66 2.64 1.62.2 1.37-1.67 2.63-2.54 3.2-1.27.85-2.49 1.3-3.65 2.02.4-1.88 1.27-6.54 3.55-6.84ZM9.75 7.91c-1.12-.76-3.25-2.23-3.2-3.9C6.6 2.2 9.45.72 10.97 2.1c1.93 1.67 2.85 5.57 3.56 8.3-1.63-.8-3.15-1.41-4.78-2.48Zm3 28.57h-9.7V19.77h9.7v16.71Zm0-18.23H1.52v-5.52h11.23v5.52Zm5.08 18.23h-3.6V12.73h3.6v23.75Zm11.17 0h-9.65V19.77h9.7v16.71H29Zm1.48-18.23H19.35v-5.52h11.13v5.52Z" fill="#d73a31"/>
  </symbol> -->
  <symbol viewBox="0 0 63 63" id="icon-email">
    <path d="M53.9 55.35H10.15C5.05 55.35 0 51.62 0 46.07v-23.4a9.7 9.7 0 0 1 9.66-9.63c.83 0 1.4.67 1.4 1.5s-.52 1.5-1.35 1.5A6.7 6.7 0 0 0 3 22.68v23.39c0 3.7 3.57 6.28 7.16 6.28H53.9c3.5 0 6.11-2.4 6.11-6.28v-23.4a6.44 6.44 0 0 0-6.37-6.63c-.83 0-1.6-.67-1.6-1.5s.82-1.5 1.65-1.5c5.22 0 9.32 4.14 9.32 9.64v23.39c0 5.55-3.92 9.28-9.1 9.28z" fill="#d73a31"/><path d="M32 37.4a9.6 9.6 0 0 1-4.67-1.2L2.76 20.9a1.5 1.5 0 0 1 1.59-2.55l24.5 15.26a6.65 6.65 0 0 0 6.46-.07l23.9-15.18a1.5 1.5 0 1 1 1.6 2.53L36.86 36.11A9.79 9.79 0 0 1 32 37.4z" fill="#d73a31"/><path d="m34.08 13.48.27-1.19h2.83L35.55 20c-.1.5-.15.81-.15.97 0 .17.04.3.12.39.08.1.18.14.3.14.38 0 .88-.25 1.5-.76a6.58 6.58 0 0 0 2.28-4.91c0-.86-.17-1.67-.5-2.43a5.65 5.65 0 0 0-1.4-1.98c-.62-.56-1.38-1-2.29-1.3a9.34 9.34 0 0 0-3.07-.48c-1.17 0-2.24.15-3.22.45-.97.31-1.83.75-2.56 1.32a7.35 7.35 0 0 0-1.85 2.1 9.15 9.15 0 0 0-1 2.43c-.23.9-.34 1.8-.34 2.72 0 1.23.24 2.36.73 3.38a6.85 6.85 0 0 0 2.14 2.57 8.73 8.73 0 0 0 3.39 1.47c1.32.29 2.82.35 4.49.18 1.32-.16 2.44-.46 3.37-.9a6.63 6.63 0 0 0 2.33-1.88h2.29a7.57 7.57 0 0 1-1.46 2.06c-.6.6-1.3 1.1-2.1 1.52-.8.4-1.7.72-2.7.94-.99.21-2.07.32-3.25.32-1.76 0-3.34-.23-4.76-.7a9.8 9.8 0 0 1-3.56-2 8.48 8.48 0 0 1-2.18-3.1 11.8 11.8 0 0 1 .02-8.28 9.99 9.99 0 0 1 2.2-3.46c.95-.98 2.12-1.74 3.5-2.3 1.38-.54 2.9-.82 4.56-.82 1.36 0 2.6.2 3.74.6 1.14.4 2.1.97 2.92 1.71a7.44 7.44 0 0 1 1.85 2.65 8.7 8.7 0 0 1 .12 6.2 8 8 0 0 1-1.47 2.48 7.16 7.16 0 0 1-2.26 1.74c-.87.43-1.8.64-2.8.64-.59 0-1.04-.1-1.36-.3-.32-.2-.54-.5-.64-.94a4.16 4.16 0 0 1-4.5.94 3.92 3.92 0 0 1-1.85-1.57 4.99 4.99 0 0 1-.7-2.73c0-1.12.24-2.23.72-3.32a6.87 6.87 0 0 1 2.07-2.67 4.8 4.8 0 0 1 3.02-1.05c1.29 0 2.23.49 2.84 1.46zm-5.88 5.57c0 .86.18 1.52.54 1.98.35.46.82.68 1.4.68a2.4 2.4 0 0 0 1.78-.8 5.2 5.2 0 0 0 1.17-2.04c.26-.82.4-1.6.4-2.38 0-.38-.05-.72-.14-1.02a2.4 2.4 0 0 0-.4-.8 1.73 1.73 0 0 0-1.47-.7c-.63 0-1.2.24-1.7.73a4.8 4.8 0 0 0-1.17 1.92c-.27.78-.41 1.6-.41 2.43z" fill="#d73a31"/>
  </symbol>
  <symbol viewBox="0 0 32 32" id="icon-iphone">
    <g data-name="Layer 2"><path d="M22 29H10a3 3 0 0 1-3-3V6a3 3 0 0 1 3-3h12a3 3 0 0 1 3 3v20a3 3 0 0 1-3 3ZM10 5a1 1 0 0 0-1 1v20a1 1 0 0 0 1 1h12a1 1 0 0 0 1-1V6a1 1 0 0 0-1-1Z" fill="#d73a31"/><path d="M18 7h-4a2 2 0 0 1-2-2V4a1 1 0 0 1 1-1h6a1 1 0 0 1 1 1v1a2 2 0 0 1-2 2Zm-4-2Z" fill="#d73a31"/></g><path fill="none" d="M0 0h32v32H0z"/>
  </symbol>
  <symbol viewBox="0 0 24 24" id="icon-marker">
    <path d="M12 6.5A2.5 2.5 0 0 1 14.5 9a2.5 2.5 0 0 1-2.5 2.5A2.5 2.5 0 0 1 9.5 9 2.5 2.5 0 0 1 12 6.5M12 2a7 7 0 0 1 7 7c0 5.25-7 13-7 13S5 14.25 5 9a7 7 0 0 1 7-7m0 2a5 5 0 0 0-5 5c0 1 0 3 5 9.71C17 12 17 10 17 9a5 5 0 0 0-5-5Z" fill="#d73a31"/>
  </symbol>
  <symbol viewBox="0 0 67 52" id="icon-order">
    <path d="M54.68 39.48h4.17c.54 0 .97-.43.97-.96V5.14a.97.97 0 0 0-.97-.97H7.23a.97.97 0 0 0-.97.97v33.38c0 .53.43.96.97.96h42.92a.97.97 0 1 0 0-1.93H8.2V6.1h49.7v31.44h-3.2a.97.97 0 1 0 0 1.93Z" fill="#d73a31"/><path d="M65.11 41.72H64V3.58C64 1.6 62.4 0 60.42 0H15.54a.97.97 0 0 0 0 1.94h44.88c.9 0 1.64.73 1.64 1.64v38.14H4.02V3.58c0-.9.74-1.64 1.64-1.64h5.35a.97.97 0 1 0 0-1.94H5.66A3.58 3.58 0 0 0 2.1 3.58v38.14H.97a.97.97 0 0 0-.97.97v5.21A4.1 4.1 0 0 0 4.1 52h4.75a.97.97 0 1 0 0-1.94H4.1c-1.2 0-2.16-.97-2.16-2.16v-4.24H25.8l.52 1.66a3.56 3.56 0 0 0 3.41 2.5h6.6c1.57 0 2.94-1 3.41-2.5l.52-1.66h23.87v4.24c0 1.2-.96 2.16-2.16 2.16h-48.6a.97.97 0 1 0 0 1.94h48.6a4.1 4.1 0 0 0 4.1-4.1v-5.2a.97.97 0 0 0-.97-.97Zm-27.2 3.02a1.63 1.63 0 0 1-1.57 1.15h-6.6c-.72 0-1.35-.46-1.56-1.15l-.34-1.08h10.4l-.34 1.08Z" fill="#d73a31"/><path d="M24.3 23.32c.47 0 .86-.33.95-.78l1.18-5.87a.97.97 0 0 0-.95-1.16h-7.43a.97.97 0 1 0 0 1.94h6.25l-.79 3.93H16l-1.3-7.03a.97.97 0 0 0-.95-.8H11.4a.97.97 0 1 0 0 1.94h1.54l1.27 6.95v4.08c0 .54.43.97.97.97h.04a1.3 1.3 0 0 0 1.26 1.64 1.3 1.3 0 0 0 1.31-1.32c0-.11-.01-.22-.04-.32h2.17l-.02.06a1.3 1.3 0 1 0 2.55.54 1.31 1.31 0 0 0 0-.6h.3a.97.97 0 1 0 0-1.94h-6.6v-2.23h8.16ZM37.4 11.4a.97.97 0 0 0-.97-.97h-4.17a.97.97 0 0 0-.97.97v4.17c0 .53.43.97.97.97h4.17c.53 0 .97-.44.97-.97V11.4Zm-1.94 3.2h-2.23v-2.23h2.23v2.23Zm5.14 1.94h8.87a.97.97 0 1 0 0-1.94H40.6a.97.97 0 1 0 0 1.94Zm0-4.17h14.08a.97.97 0 0 0 0-1.94H40.6a.97.97 0 1 0 0 1.94Zm-3.2 7.37a.97.97 0 0 0-.97-.97h-4.17a.97.97 0 0 0-.97.97v4.17c0 .54.43.97.97.97h4.17c.53 0 .97-.43.97-.97v-4.17Zm-1.94 3.2h-2.23v-2.23h2.23v2.24Zm5.14 1.94h8.87a.97.97 0 1 0 0-1.93H40.6a.97.97 0 1 0 0 1.93Zm0-4.17h14.08a.97.97 0 1 0 0-1.94H40.6a.97.97 0 1 0 0 1.94Zm-4.17 6.41h-4.17a.97.97 0 0 0-.97.97v4.17c0 .53.43.97.97.97h4.17c.53 0 .97-.44.97-.97v-4.17a.97.97 0 0 0-.97-.97Zm-.97 4.17h-2.23v-2.24h2.23v2.24Zm5.14 0a.97.97 0 1 0 0 1.94h8.87a.97.97 0 1 0 0-1.94H40.6Zm15.05-3.2a.97.97 0 0 0-.97-.97H40.6a.97.97 0 1 0 0 1.93h14.08c.54 0 .97-.43.97-.96Z" fill="#d73a31"/>
  </symbol>
  <symbol viewBox="0 0 38 52" id="icon-details">
    <path d="M35.22 37.25c-.69-3.43-3.91-4.01-3.92-4.02l-7.86-1.95v-.27h6c1.24 0 2.25-1 2.25-2.25V17.32c.1-.42.1-.87 0-1.3v-4.17a.76.76 0 1 0-1.53 0v2.19c-.4-.24-.86-.41-1.35-.5a1.99 1.99 0 0 0-1.68-1.53 2.48 2.48 0 0 1-1.96-1.51 1.3 1.3 0 0 0-1.06-.73 1.3 1.3 0 0 0-1.17.53 13.94 13.94 0 0 1-11.23 5.77c-.48 0-.8-.02-.92-.02a2.01 2.01 0 0 0-2.13 2v1.76a10.33 10.33 0 0 0 5.38 9.04v.63H8.07a.72.72 0 0 1-.72-.72V11.65A10.12 10.12 0 0 1 17.4 1.52a13 13 0 0 1 5.76 1.42c.97.54 1.58.11 2.54.11 2.35 0 4.24 2.42 4.47 4.6v.65c0 .73.83.79.76.76.42 0 .77-.34.77-.76 0-.14 0-.67-.02-.8-.3-3.02-2.89-5.97-5.98-5.97-1.2 0-1.4.3-1.8.08A14.46 14.46 0 0 0 17.4 0 11.64 11.64 0 0 0 5.83 11.65v17.11c0 1.24 1 2.25 2.24 2.25h5.97v.27l-7.82 1.94-.03.01-.57.17a5.06 5.06 0 0 0-3.34 3.85L.04 48.45C-.23 50.41.75 52 3.13 52h8.24a.76.76 0 1 0 0-1.52H8.51v-7.19a.76.76 0 1 0-1.53 0v7.19H3.13c-1 0-1.6-.33-1.6-1.4 0-.51-.03 0 2.24-11.53a3.57 3.57 0 0 1 2.3-2.7l.53-.15 4.5-1.12c5 5.9 4.7 5.58 4.99 5.86 1.67 1.63 4.05 1.51 5.61-.33l4.7-5.52 4.48 1.1c.13.07 2.36.46 2.84 2.86 2.25 11.42 2.25 11.02 2.24 11.54 0 1.04-.57 1.39-1.6 1.39h-3.83v-7.19a.76.76 0 1 0-1.52 0v7.19H14.93a.76.76 0 1 0 0 1.52h19.42c1.89 0 3.12-1.04 3.14-2.9 0-.87-.05-.46-2.27-11.85Zm-6.36-22.14c.63.2 1.12.61 1.3 1.13v.87c-.18.52-.67.94-1.3 1.13V15.1Zm0 4.83v-.14c.47-.09.92-.26 1.3-.49v9.45c0 .4-.32.72-.72.72h-6v-.59a10.09 10.09 0 0 0 5.42-8.95Zm-15.96 6.2a8.8 8.8 0 0 1-2.72-6.33c.05-1.66-.1-1.86.16-2.11.1-.09.22-.14.36-.13a15.3 15.3 0 0 0 13.26-6.1 3.9 3.9 0 0 0 2.97 2.05c.23.03.4.22.4.45v5.97c0 7.58-9.07 11.33-14.43 6.2Zm7.64 11.99c-1.06 1.24-2.54 1.24-3.6-.01l-1.6-1.88h6.8l-1.6 1.89Zm2.9-3.4h-9.38l-1.31-1.55 2.24-.56c.34-.08.58-.4.58-.75v-2.35c2.1.7 4.3.69 6.35.02.02 2.43-.03 2.38.04 2.6.09.23.28.42.54.48l2.26.56-1.32 1.54Z" fill="#d73a31"/>
  </symbol>
  <symbol viewBox="0 0 70 52" id="icon-payment">
    <path d="M22 14.73H10.24a2.57 2.57 0 0 0-2.57 2.57v9.29a2.57 2.57 0 0 0 2.57 2.57H22a2.57 2.57 0 0 0 2.57-2.57V17.3A2.57 2.57 0 0 0 22 14.73Zm.52 2.57v3.62h-5.37v-4.14H22c.29 0 .52.24.52.52Zm-12.8 9.3v-9.3c0-.28.24-.52.52-.52h4.86v10.33h-4.86a.52.52 0 0 1-.52-.52Zm12.28.5h-4.85v-4.14h5.37v3.62c0 .28-.23.52-.52.52ZM7.67 41c0 .56.46 1.02 1.03 1.02h30.14a1.02 1.02 0 1 0 0-2.05H8.7c-.57 0-1.03.46-1.03 1.02Zm1.03 2.87a1.02 1.02 0 1 0 0 2.05h15.07a1.02 1.02 0 1 0 0-2.05H8.7Zm18.19-7.77v-2.47a1.02 1.02 0 1 0-2.05 0v2.47a1.02 1.02 0 1 0 2.05 0Zm4.68 0v-2.47a1.02 1.02 0 1 0-2.05 0v2.47a1.02 1.02 0 1 0 2.05 0Zm4.68 0v-2.47a1.02 1.02 0 1 0-2.05 0v2.47a1.02 1.02 0 1 0 2.05 0Zm4.68 0v-2.47a1.02 1.02 0 1 0-2.04 0v2.47a1.02 1.02 0 1 0 2.04 0Zm5.76-2.47v2.47a1.02 1.02 0 0 0 2.05 0v-2.47a1.02 1.02 0 1 0-2.05 0Zm4.68 0v2.47a1.02 1.02 0 0 0 2.05 0v-2.47a1.02 1.02 0 1 0-2.05 0Zm4.68 0v2.47a1.02 1.02 0 0 0 2.05 0v-2.47a1.02 1.02 0 1 0-2.05 0ZM8.7 37.13c.56 0 1.02-.46 1.02-1.03v-2.47a1.02 1.02 0 1 0-2.05 0v2.47c0 .57.46 1.03 1.03 1.03Zm5.7-1.03v-2.47a1.02 1.02 0 1 0-2.04 0v2.47a1.02 1.02 0 0 0 2.04 0Zm4.69 0v-2.47a1.02 1.02 0 1 0-2.05 0v2.47a1.02 1.02 0 0 0 2.05 0Z" fill="#d73a31"/><path d="M69.93 10.4a10.42 10.42 0 0 0-20.66-1.75h-26.5a1.02 1.02 0 1 0 0 2.05h26.35a10.43 10.43 0 0 0 10.4 10.11c1.5 0 2.95-.33 4.2-.88v17.22a1.02 1.02 0 1 0 2.06 0V18.72a10.4 10.4 0 0 0 4.15-8.31Zm-10.4-8.35a8.37 8.37 0 0 1 0 16.71 8.36 8.36 0 0 1 0-16.71Z" fill="#d73a31"/><path d="M56.69 14.35c.34.56 1.13.65 1.6.19L64.9 7.9a1.02 1.02 0 0 0-1.45-1.45l-5.7 5.71-2.22-3.58a1.02 1.02 0 0 0-1.74 1.08l2.89 4.68Zm8.06 26.56c-.56 0-1.02.46-1.02 1.02v4.23a3.8 3.8 0 0 1-3.8 3.8H5.84a3.8 3.8 0 0 1-3.8-3.8V14.49c0-2.09 1.71-3.8 3.8-3.8h12.14a1.02 1.02 0 1 0 0-2.04H5.84A5.85 5.85 0 0 0 0 14.5v31.67A5.85 5.85 0 0 0 5.84 52h54.1a5.85 5.85 0 0 0 5.84-5.84v-4.23c0-.56-.46-1.02-1.03-1.02Z" fill="#d73a31"/><path d="M59.34 27.58v-3.03c0-.86-.7-1.57-1.57-1.57H47.3c-.87 0-1.58.7-1.58 1.57v3.03c0 .87.7 1.58 1.58 1.58h10.46c.86 0 1.57-.7 1.57-1.58Zm-2.05-.47h-9.51v-2.08h9.51v2.08Z" fill="#d73a31"/>
  </symbol>
</svg>
