<svg width="27" height="27" viewBox="0 0 27 27" fill="none" xmlns="http://www.w3.org/2000/svg"><path fill-rule="evenodd" clip-rule="evenodd" d="M11.73 7.12c-.12-.57-.35-.62-.56-.67l-.56-.12c-.2-.04-.53-.02-.86.25-.33.26-1.23.89-1.53 2.45-.3 1.55.47 3.26.57 3.5.1.24 1.37 3.9 4.11 5.75 2.28 1.53 2.83 1.41 3.38 1.47.55.04 1.88-.44 2.27-1.13.38-.7.5-1.33.46-1.48-.05-.14-.23-.26-.5-.48a47.3 47.3 0 0 0-1.8-1.41c-.26-.16-.44-.25-.7.03-.25.28-.96.89-1.17 1.07-.21.18-.38.17-.65-.04-.26-.22-1.14-.73-2.06-2.03-.71-1-1.1-2.16-1.22-2.5-.11-.36.08-.5.25-.63.16-.12.37-.31.55-.47.18-.16.26-.28.4-.47.13-.2.12-.39.08-.56-.04-.18-.32-1.85-.46-2.53Z" fill="#fff"/><path d="m3.9 21.27.46.16.1-.26-.19-.22-.38.32Zm-1.51 4.5-.48-.15-.27.84.86-.2-.11-.48Zm5.65-1.25.21-.45L8.1 24l-.17.04.1.48ZM25.5 13.28a12 12 0 0 1-12 12v1a13 13 0 0 0 13-13h-1Zm-12-12a12 12 0 0 1 12 12h1a13 13 0 0 0-13-13v1Zm-12 12a12 12 0 0 1 12-12v-1a13 13 0 0 0-13 13h1Zm2.77 7.67a11.95 11.95 0 0 1-2.77-7.67h-1c0 3.16 1.13 6.06 3 8.31l.77-.64Zm-1.4 4.99 1.5-4.5-.95-.33-1.5 4.51.94.32Zm5.06-1.9-5.65 1.25.22.98L8.14 25l-.21-.98Zm5.57 1.24c-1.88 0-3.66-.44-5.25-1.2l-.43.9c1.71.83 3.64 1.3 5.68 1.3v-1Z" fill="#fff"/></svg>